<?xml version="1.0" encoding="UTF-8" standalone="no"?>
<!DOCTYPE svg PUBLIC "-//W3C//DTD SVG 1.1//EN"
 "http://www.w3.org/Graphics/SVG/1.1/DTD/svg11.dtd">
<!-- Generated by graphviz version 2.38.0 (20140413.2041)
 -->
<!-- Title: all_states Pages: 1 -->
<svg width="1089pt" height="1097pt"
 viewBox="0.00 0.00 1088.80 1097.36" xmlns="http://www.w3.org/2000/svg" xmlns:xlink="http://www.w3.org/1999/xlink">
<g id="happy" class="layer">
<g id="graph0" class="graph" transform="scale(1 1) rotate(0) translate(4 1093.36)">
<title>all_states</title>
<polygon fill="white" stroke="none" points="-4,4 -4,-1093.36 1084.8,-1093.36 1084.8,4 -4,4"/>
<!-- before_existence -->
<g id="node1" class="node"><title>before_existence</title>
<ellipse fill="none" stroke="black" cx="335.805" cy="-1071.36" rx="39.1641" ry="18"/>
<text text-anchor="middle" x="335.805" y="-1067.16" font-family="Times,serif" font-size="14.00">no stack</text>
</g>
<!-- CREATE_IN_PROGRESS -->
<g id="node8" class="node"><title>CREATE_IN_PROGRESS</title>
<ellipse fill="none" stroke="black" stroke-dasharray="1,5" cx="335.805" cy="-998.357" rx="106.335" ry="18"/>
<text text-anchor="middle" x="335.805" y="-994.157" font-family="Times,serif" font-size="14.00">CREATE_IN_PROGRESS</text>
</g>
<!-- before_existence&#45;&gt;CREATE_IN_PROGRESS -->
<g id="edge2" class="edge"><title>before_existence&#45;&gt;CREATE_IN_PROGRESS</title>
<path fill="none" stroke="black" d="M335.805,-1053.17C335.805,-1045.15 335.805,-1035.4 335.805,-1026.43"/>
<polygon fill="black" stroke="black" points="339.305,-1026.39 335.805,-1016.39 332.305,-1026.39 339.305,-1026.39"/>
</g>
<!-- after_existence -->
<g id="node2" class="node"><title>after_existence</title>
<ellipse fill="none" stroke="black" cx="350.805" cy="-18" rx="39.1641" ry="18"/>
<text text-anchor="middle" x="350.805" y="-13.8" font-family="Times,serif" font-size="14.00">no stack</text>
</g>
<!-- updateable_stack -->
<g id="node3" class="node"><title>updateable_stack</title>
<ellipse fill="none" stroke="none" cx="686.805" cy="-809.902" rx="88.6457" ry="25.4118"/>
<text text-anchor="middle" x="686.805" y="-812.702" font-family="Times,serif" font-size="14.00">an updateable stack</text>
<text text-anchor="middle" x="686.805" y="-798.702" font-family="Times,serif" font-size="14.00">(various states)</text>
</g>
<!-- DELETE_IN_PROGRESS -->
<g id="node6" class="node"><title>DELETE_IN_PROGRESS</title>
<ellipse fill="none" stroke="black" stroke-dasharray="1,5" cx="350.805" cy="-177" rx="106.31" ry="18"/>
<text text-anchor="middle" x="350.805" y="-172.8" font-family="Times,serif" font-size="14.00">DELETE_IN_PROGRESS</text>
</g>
<!-- updateable_stack&#45;&gt;DELETE_IN_PROGRESS -->
<g id="edge26" class="edge"><title>updateable_stack&#45;&gt;DELETE_IN_PROGRESS</title>
<path fill="none" stroke="black" d="M767.011,-798.802C882.211,-782.019 1080.8,-743.588 1080.8,-678.09 1080.8,-678.09 1080.8,-678.09 1080.8,-256.456 1080.8,-195.504 673.292,-181.836 467.215,-178.821"/>
<polygon fill="black" stroke="black" points="467.001,-175.318 456.953,-178.677 466.903,-182.317 467.001,-175.318"/>
</g>
<!-- UPDATE_IN_PROGRESS -->
<g id="node17" class="node"><title>UPDATE_IN_PROGRESS</title>
<ellipse fill="none" stroke="black" stroke-dasharray="1,5" cx="686.805" cy="-677.09" rx="106.82" ry="18"/>
<text text-anchor="middle" x="686.805" y="-672.89" font-family="Times,serif" font-size="14.00">UPDATE_IN_PROGRESS</text>
</g>
<!-- updateable_stack&#45;&gt;UPDATE_IN_PROGRESS -->
<g id="edge13" class="edge"><title>updateable_stack&#45;&gt;UPDATE_IN_PROGRESS</title>
<path fill="none" stroke="black" d="M686.805,-784.297C686.805,-761.807 686.805,-728.602 686.805,-705.323"/>
<polygon fill="black" stroke="black" points="690.305,-705.091 686.805,-695.091 683.305,-705.091 690.305,-705.091"/>
</g>
<!-- DELETE_COMPLETE -->
<g id="node10" class="node"><title>DELETE_COMPLETE</title>
<ellipse fill="none" stroke="black" cx="350.805" cy="-104" rx="94.6982" ry="18"/>
<text text-anchor="middle" x="350.805" y="-99.8" font-family="Times,serif" font-size="14.00">DELETE_COMPLETE</text>
</g>
<!-- DELETE_IN_PROGRESS&#45;&gt;DELETE_COMPLETE -->
<g id="edge27" class="edge"><title>DELETE_IN_PROGRESS&#45;&gt;DELETE_COMPLETE</title>
<path fill="none" stroke="black" d="M350.805,-158.813C350.805,-150.789 350.805,-141.047 350.805,-132.069"/>
<polygon fill="black" stroke="black" points="354.305,-132.029 350.805,-122.029 347.305,-132.029 354.305,-132.029"/>
</g>
<!-- CREATE_COMPLETE -->
<g id="node7" class="node"><title>CREATE_COMPLETE</title>
<ellipse fill="none" stroke="black" cx="580.805" cy="-925.357" rx="94.7242" ry="18"/>
<text text-anchor="middle" x="580.805" y="-921.157" font-family="Times,serif" font-size="14.00">CREATE_COMPLETE</text>
</g>
<!-- CREATE_COMPLETE&#45;&gt;updateable_stack -->
<g id="edge4" class="edge"><title>CREATE_COMPLETE&#45;&gt;updateable_stack</title>
<path fill="none" stroke="black" d="M596.904,-907.126C612.997,-889.9 638.103,-863.029 657.697,-842.056"/>
<polygon fill="black" stroke="black" points="660.371,-844.322 664.64,-834.625 655.256,-839.543 660.371,-844.322"/>
</g>
<!-- CREATE_IN_PROGRESS&#45;&gt;CREATE_COMPLETE -->
<g id="edge3" class="edge"><title>CREATE_IN_PROGRESS&#45;&gt;CREATE_COMPLETE</title>
<path fill="none" stroke="black" d="M386.867,-982.56C426.075,-971.197 480.293,-955.485 521.436,-943.562"/>
<polygon fill="black" stroke="black" points="522.435,-946.917 531.065,-940.772 520.486,-940.194 522.435,-946.917"/>
</g>
<!-- DELETE_COMPLETE&#45;&gt;after_existence -->
<g id="edge28" class="edge"><title>DELETE_COMPLETE&#45;&gt;after_existence</title>
<path fill="none" stroke="black" d="M350.805,-85.5951C350.805,-74.2572 350.805,-59.2271 350.805,-46.3153"/>
<polygon fill="black" stroke="black" points="354.305,-46.0951 350.805,-36.0952 347.305,-46.0952 354.305,-46.0951"/>
<text text-anchor="middle" x="388.32" y="-56.8" font-family="Times,serif" font-size="14.00"> 90 days later</text>
</g>
<!-- UPDATE_COMPLETE -->
<g id="node15" class="node"><title>UPDATE_COMPLETE</title>
<ellipse fill="none" stroke="black" cx="957.805" cy="-498.823" rx="95.2087" ry="18"/>
<text text-anchor="middle" x="957.805" y="-494.623" font-family="Times,serif" font-size="14.00">UPDATE_COMPLETE</text>
</g>
<!-- UPDATE_COMPLETE&#45;&gt;updateable_stack -->
<g id="edge16" class="edge"><title>UPDATE_COMPLETE&#45;&gt;updateable_stack</title>
<path fill="none" stroke="black" d="M958.253,-517.067C958.06,-538.956 955.118,-577.179 938.805,-604.735 890.476,-686.371 796.606,-748.987 738.074,-782.257"/>
<polygon fill="black" stroke="black" points="736.01,-779.402 728.996,-787.343 739.431,-785.509 736.01,-779.402"/>
</g>
<!-- UPDATE_COMPLETE_CLEANUP_IN_PROGRESS -->
<g id="node16" class="node"><title>UPDATE_COMPLETE_CLEANUP_IN_PROGRESS</title>
<ellipse fill="none" stroke="black" stroke-dasharray="1,5" cx="802.805" cy="-579.279" rx="127.253" ry="25.4118"/>
<text text-anchor="middle" x="802.805" y="-582.079" font-family="Times,serif" font-size="14.00">UPDATE_COMPLETE</text>
<text text-anchor="middle" x="802.805" y="-568.079" font-family="Times,serif" font-size="14.00">CLEANUP_IN_PROGRESS</text>
</g>
<!-- UPDATE_COMPLETE_CLEANUP_IN_PROGRESS&#45;&gt;UPDATE_COMPLETE -->
<g id="edge15" class="edge"><title>UPDATE_COMPLETE_CLEANUP_IN_PROGRESS&#45;&gt;UPDATE_COMPLETE</title>
<path fill="none" stroke="black" d="M848.054,-555.376C869.848,-544.344 895.785,-531.216 916.97,-520.492"/>
<polygon fill="black" stroke="black" points="918.693,-523.543 926.035,-515.904 915.532,-517.298 918.693,-523.543"/>
</g>
<!-- UPDATE_IN_PROGRESS&#45;&gt;UPDATE_COMPLETE_CLEANUP_IN_PROGRESS -->
<g id="edge14" class="edge"><title>UPDATE_IN_PROGRESS&#45;&gt;UPDATE_COMPLETE_CLEANUP_IN_PROGRESS</title>
<path fill="none" stroke="black" d="M707.01,-659.401C723.213,-646.019 746.385,-626.879 765.881,-610.777"/>
<polygon fill="black" stroke="black" points="768.22,-613.384 773.702,-604.317 763.762,-607.987 768.22,-613.384"/>
</g>
</g>
</g>
<g id="sad" class="layer">
<g id="sad_graph0" class="graph" transform="scale(1 1) rotate(0) translate(4 1093.36)">
<title>all_states</title>
<polygon fill="white" stroke="none" points="-4,4 -4,-1093.36 1084.8,-1093.36 1084.8,4 -4,4"/>
<!-- stuck_stack -->
<g id="sad_node4_sad" class="node"><title>stuck_stack</title>
<ellipse fill="none" stroke="none" cx="350.805" cy="-257.456" rx="102.038" ry="25.4118"/>
<text text-anchor="middle" x="350.805" y="-260.256" font-family="Times,serif" font-size="14.00">a non&#45;updateable stack</text>
<text text-anchor="middle" x="350.805" y="-246.256" font-family="Times,serif" font-size="14.00">(various states)</text>
</g>
<!-- stuck_stack&#45;&gt;DELETE_IN_PROGRESS -->
<g id="sad_edge12" class="edge"><title>stuck_stack&#45;&gt;DELETE_IN_PROGRESS</title>
<path fill="none" stroke="black" d="M350.805,-231.632C350.805,-223.299 350.805,-213.958 350.805,-205.437"/>
<polygon fill="black" stroke="black" points="354.305,-205.217 350.805,-195.217 347.305,-205.218 354.305,-205.217"/>
</g>
<!-- empty_stack -->
<g id="sad_node5_sad" class="node"><title>empty_stack</title>
<ellipse fill="none" stroke="none" cx="107.805" cy="-677.09" rx="107.61" ry="35.2113"/>
<text text-anchor="middle" x="107.805" y="-686.89" font-family="Times,serif" font-size="14.00">non&#45;deleted stack</text>
<text text-anchor="middle" x="107.805" y="-672.89" font-family="Times,serif" font-size="14.00">with no extant resources</text>
<text text-anchor="middle" x="107.805" y="-658.89" font-family="Times,serif" font-size="14.00">(various states)</text>
</g>
<!-- empty_stack&#45;&gt;DELETE_IN_PROGRESS -->
<g id="sad_edge1" class="edge"><title>empty_stack&#45;&gt;DELETE_IN_PROGRESS</title>
<path fill="none" stroke="black" d="M134.599,-642.682C146.038,-625.152 156.805,-602.699 156.805,-580.279 156.805,-580.279 156.805,-580.279 156.805,-256.456 156.805,-214.32 196.623,-194.26 240.18,-184.922"/>
<polygon fill="black" stroke="black" points="240.968,-188.334 250.111,-182.982 239.626,-181.464 240.968,-188.334"/>
</g>
<!-- DELETE_FAILED -->
<g id="sad_node11_sad" class="node"><title>DELETE_FAILED</title>
<ellipse fill="none" stroke="black" cx="350.805" cy="-337.912" rx="78.9261" ry="18"/>
<text text-anchor="middle" x="350.805" y="-333.712" font-family="Times,serif" font-size="14.00">DELETE_FAILED</text>
</g>
<!-- DELETE_IN_PROGRESS&#45;&gt;DELETE_FAILED -->
<g id="sad_edge29" class="edge"><title>DELETE_IN_PROGRESS&#45;&gt;DELETE_FAILED</title>
<path fill="none" stroke="black" d="M408.355,-192.172C428.855,-200.292 449.814,-212.833 461.805,-232 473.805,-251.183 473.805,-263.729 461.805,-282.912 450.719,-300.633 431.967,-312.689 413,-320.825"/>
<polygon fill="black" stroke="black" points="411.709,-317.571 403.704,-324.511 414.29,-324.078 411.709,-317.571"/>
</g>
<!-- CREATE_FAILED -->
<g id="sad_node9_sad" class="node"><title>CREATE_FAILED</title>
<ellipse fill="none" stroke="black" cx="115.805" cy="-871.357" rx="78.9521" ry="18"/>
<text text-anchor="middle" x="115.805" y="-867.157" font-family="Times,serif" font-size="14.00">CREATE_FAILED</text>
</g>
<!-- CREATE_IN_PROGRESS&#45;&gt;CREATE_FAILED -->
<g id="sad_edge10" class="edge"><title>CREATE_IN_PROGRESS&#45;&gt;CREATE_FAILED</title>
<path fill="none" stroke="black" d="M290.433,-982.01C264.775,-972.482 232.572,-959.07 205.805,-943.357 182.648,-929.764 158.901,-910.778 141.618,-895.858"/>
<polygon fill="black" stroke="black" points="143.511,-892.863 133.684,-888.903 138.896,-898.127 143.511,-892.863"/>
</g>
<!-- ROLLBACK_IN_PROGRESS -->
<g id="sad_node14_sad" class="node"><title>ROLLBACK_IN_PROGRESS</title>
<ellipse fill="none" stroke="black" stroke-dasharray="1,5" cx="335.805" cy="-925.357" rx="120.835" ry="18"/>
<text text-anchor="middle" x="335.805" y="-921.157" font-family="Times,serif" font-size="14.00">ROLLBACK_IN_PROGRESS</text>
</g>
<!-- CREATE_IN_PROGRESS&#45;&gt;ROLLBACK_IN_PROGRESS -->
<g id="sad_edge5" class="edge"><title>CREATE_IN_PROGRESS&#45;&gt;ROLLBACK_IN_PROGRESS</title>
<path fill="none" stroke="black" d="M335.805,-980.17C335.805,-972.147 335.805,-962.405 335.805,-953.427"/>
<polygon fill="black" stroke="black" points="339.305,-953.386 335.805,-943.386 332.305,-953.386 339.305,-953.386"/>
</g>
<!-- CREATE_FAILED&#45;&gt;empty_stack -->
<g id="sad_edge11" class="edge"><title>CREATE_FAILED&#45;&gt;empty_stack</title>
<path fill="none" stroke="black" d="M114.763,-853.271C114.434,-847.575 114.083,-841.194 113.805,-835.357 111.994,-797.351 110.378,-754.157 109.28,-722.665"/>
<polygon fill="black" stroke="black" points="112.771,-722.332 108.929,-712.459 105.775,-722.573 112.771,-722.332"/>
</g>
<!-- DELETE_FAILED&#45;&gt;stuck_stack -->
<g id="sad_edge30" class="edge"><title>DELETE_FAILED&#45;&gt;stuck_stack</title>
<path fill="none" stroke="black" d="M350.805,-319.888C350.805,-312.095 350.805,-302.558 350.805,-293.345"/>
<polygon fill="black" stroke="black" points="354.305,-293.191 350.805,-283.191 347.305,-293.191 354.305,-293.191"/>
</g>
<!-- ROLLBACK_COMPLETE -->
<g id="sad_node12_sad" class="node"><title>ROLLBACK_COMPLETE</title>
<ellipse fill="none" stroke="black" cx="231.805" cy="-809.902" rx="108.724" ry="18"/>
<text text-anchor="middle" x="231.805" y="-805.702" font-family="Times,serif" font-size="14.00">ROLLBACK_COMPLETE</text>
</g>
<!-- ROLLBACK_COMPLETE&#45;&gt;empty_stack -->
<g id="sad_edge7" class="edge"><title>ROLLBACK_COMPLETE&#45;&gt;empty_stack</title>
<path fill="none" stroke="black" d="M215.848,-792.068C198.361,-773.62 169.678,-743.362 146.259,-718.657"/>
<polygon fill="black" stroke="black" points="148.598,-716.037 139.178,-711.187 143.518,-720.853 148.598,-716.037"/>
</g>
<!-- ROLLBACK_FAILED -->
<g id="sad_node13_sad" class="node"><title>ROLLBACK_FAILED</title>
<ellipse fill="none" stroke="black" cx="305.805" cy="-748.446" rx="92.9509" ry="18"/>
<text text-anchor="middle" x="305.805" y="-744.246" font-family="Times,serif" font-size="14.00">ROLLBACK_FAILED</text>
</g>
<!-- ROLLBACK_FAILED&#45;&gt;stuck_stack -->
<g id="sad_edge9" class="edge"><title>ROLLBACK_FAILED&#45;&gt;stuck_stack</title>
<path fill="none" stroke="black" d="M290.796,-730.365C272.447,-707.665 243.805,-665.537 243.805,-623.735 243.805,-623.735 243.805,-623.735 243.805,-336.912 243.805,-312.819 261.665,-295.318 282.791,-283.043"/>
<polygon fill="black" stroke="black" points="284.525,-286.084 291.672,-278.263 281.207,-279.92 284.525,-286.084"/>
</g>
<!-- ROLLBACK_IN_PROGRESS&#45;&gt;ROLLBACK_COMPLETE -->
<g id="sad_edge6" class="edge"><title>ROLLBACK_IN_PROGRESS&#45;&gt;ROLLBACK_COMPLETE</title>
<path fill="none" stroke="black" d="M320.009,-907.126C302.499,-888.023 274.115,-857.058 254.289,-835.43"/>
<polygon fill="black" stroke="black" points="256.745,-832.93 247.408,-827.924 251.585,-837.66 256.745,-832.93"/>
</g>
<!-- ROLLBACK_IN_PROGRESS&#45;&gt;ROLLBACK_FAILED -->
<g id="sad_edge8" class="edge"><title>ROLLBACK_IN_PROGRESS&#45;&gt;ROLLBACK_FAILED</title>
<path fill="none" stroke="black" d="M343.135,-906.982C353.549,-879.481 369.319,-824.903 349.805,-784.446 347.69,-780.061 344.729,-776.056 341.332,-772.45"/>
<polygon fill="black" stroke="black" points="343.613,-769.793 333.878,-765.613 338.881,-774.952 343.613,-769.793"/>
</g>
<!-- UPDATE_ROLLBACK_IN_PROGRESS -->
<g id="sad_node21_sad" class="node"><title>UPDATE_ROLLBACK_IN_PROGRESS</title>
<ellipse fill="none" stroke="black" stroke-dasharray="1,5" cx="685.805" cy="-498.823" rx="158.981" ry="18"/>
<text text-anchor="middle" x="685.805" y="-494.623" font-family="Times,serif" font-size="14.00">UPDATE_ROLLBACK_IN_PROGRESS</text>
</g>
<!-- UPDATE_COMPLETE_CLEANUP_IN_PROGRESS&#45;&gt;UPDATE_ROLLBACK_IN_PROGRESS -->
<g id="sad_edge17" class="edge"><title>UPDATE_COMPLETE_CLEANUP_IN_PROGRESS&#45;&gt;UPDATE_ROLLBACK_IN_PROGRESS</title>
<path fill="none" stroke="black" d="M767.701,-554.74C752.396,-544.477 734.533,-532.499 719.403,-522.353"/>
<polygon fill="black" stroke="black" points="721.105,-519.28 710.85,-516.618 717.207,-525.094 721.105,-519.28"/>
</g>
<!-- UPDATE_IN_PROGRESS&#45;&gt;UPDATE_ROLLBACK_IN_PROGRESS -->
<g id="sad_edge18" class="edge"><title>UPDATE_IN_PROGRESS&#45;&gt;UPDATE_ROLLBACK_IN_PROGRESS</title>
<path fill="none" stroke="black" d="M680.612,-659.067C675.763,-644.783 669.416,-623.726 666.805,-604.735 663.723,-582.319 662.995,-576.128 666.805,-553.823 668.368,-544.67 671.321,-535.004 674.442,-526.42"/>
<polygon fill="black" stroke="black" points="677.767,-527.525 678.108,-516.935 671.238,-525.001 677.767,-527.525"/>
</g>
<!-- UPDATE_ROLLBACK_COMPLETE -->
<g id="sad_node18_sad" class="node"><title>UPDATE_ROLLBACK_COMPLETE</title>
<ellipse fill="none" stroke="black" cx="594.805" cy="-337.912" rx="147.37" ry="18"/>
<text text-anchor="middle" x="594.805" y="-333.712" font-family="Times,serif" font-size="14.00">UPDATE_ROLLBACK_COMPLETE</text>
</g>
<!-- UPDATE_ROLLBACK_COMPLETE&#45;&gt;updateable_stack -->
<g id="sad_edge22" class="edge"><title>UPDATE_ROLLBACK_COMPLETE&#45;&gt;updateable_stack</title>
<path fill="none" stroke="black" d="M549.361,-355.083C523.336,-367.563 495.805,-387.762 495.805,-417.368 495.805,-678.09 495.805,-678.09 495.805,-678.09 495.805,-736.669 557.715,-770.947 611.041,-789.607"/>
<polygon fill="black" stroke="black" points="609.944,-792.931 620.538,-792.801 612.176,-786.296 609.944,-792.931"/>
</g>
<!-- UPDATE_ROLLBACK_COMPLETE_CLEANUP_IN_PROGRESS -->
<g id="sad_node19_sad" class="node"><title>UPDATE_ROLLBACK_COMPLETE_CLEANUP_IN_PROGRESS</title>
<ellipse fill="none" stroke="black" stroke-dasharray="1,5" cx="688.805" cy="-418.368" rx="164.522" ry="25.4118"/>
<text text-anchor="middle" x="688.805" y="-421.168" font-family="Times,serif" font-size="14.00">UPDATE_ROLLBACK_COMPLETE</text>
<text text-anchor="middle" x="688.805" y="-407.168" font-family="Times,serif" font-size="14.00">CLEANUP_IN_PROGRESS</text>
</g>
<!-- UPDATE_ROLLBACK_COMPLETE_CLEANUP_IN_PROGRESS&#45;&gt;UPDATE_ROLLBACK_COMPLETE -->
<g id="sad_edge20" class="edge"><title>UPDATE_ROLLBACK_COMPLETE_CLEANUP_IN_PROGRESS&#45;&gt;UPDATE_ROLLBACK_COMPLETE</title>
<path fill="none" stroke="black" d="M659.835,-393.188C648.088,-383.384 634.571,-372.102 622.914,-362.372"/>
<polygon fill="black" stroke="black" points="625.105,-359.643 615.185,-355.922 620.62,-365.017 625.105,-359.643"/>
</g>
<!-- UPDATE_ROLLBACK_FAILED -->
<g id="sad_node20_sad" class="node"><title>UPDATE_ROLLBACK_FAILED</title>
<ellipse fill="none" stroke="black" cx="890.805" cy="-337.912" rx="131.097" ry="18"/>
<text text-anchor="middle" x="890.805" y="-333.712" font-family="Times,serif" font-size="14.00">UPDATE_ROLLBACK_FAILED</text>
</g>
<!-- UPDATE_ROLLBACK_COMPLETE_CLEANUP_IN_PROGRESS&#45;&gt;UPDATE_ROLLBACK_FAILED -->
<g id="sad_edge21" class="edge"><title>UPDATE_ROLLBACK_COMPLETE_CLEANUP_IN_PROGRESS&#45;&gt;UPDATE_ROLLBACK_FAILED</title>
<path fill="none" stroke="black" d="M747.503,-394.569C776.679,-383.238 811.604,-369.673 839.67,-358.772"/>
<polygon fill="black" stroke="black" points="841.236,-361.919 849.291,-355.036 838.702,-355.394 841.236,-361.919"/>
</g>
<!-- UPDATE_ROLLBACK_FAILED&#45;&gt;stuck_stack -->
<g id="sad_edge24" class="edge"><title>UPDATE_ROLLBACK_FAILED&#45;&gt;stuck_stack</title>
<path fill="none" stroke="black" d="M804.344,-324.35C706.882,-310.19 548.832,-287.227 447.393,-272.489"/>
<polygon fill="black" stroke="black" points="447.851,-269.019 437.452,-271.045 446.844,-275.946 447.851,-269.019"/>
</g>
<!-- UPDATE_ROLLBACK_FAILED&#45;&gt;UPDATE_ROLLBACK_IN_PROGRESS -->
<g id="sad_edge25" class="edge"><title>UPDATE_ROLLBACK_FAILED&#45;&gt;UPDATE_ROLLBACK_IN_PROGRESS</title>
<path fill="none" stroke="black" d="M897.137,-356.251C899.441,-379.317 894.848,-419.952 871.805,-443.823 853.8,-462.475 829.56,-474.734 804.523,-482.777"/>
<polygon fill="black" stroke="black" points="803.476,-479.436 794.9,-485.657 805.483,-486.142 803.476,-479.436"/>
</g>
<!-- UPDATE_ROLLBACK_IN_PROGRESS&#45;&gt;UPDATE_ROLLBACK_COMPLETE_CLEANUP_IN_PROGRESS -->
<g id="sad_edge19" class="edge"><title>UPDATE_ROLLBACK_IN_PROGRESS&#45;&gt;UPDATE_ROLLBACK_COMPLETE_CLEANUP_IN_PROGRESS</title>
<path fill="none" stroke="black" d="M686.456,-480.8C686.754,-473.006 687.118,-463.47 687.471,-454.257"/>
<polygon fill="black" stroke="black" points="690.974,-454.229 687.859,-444.102 683.979,-453.961 690.974,-454.229"/>
</g>
<!-- UPDATE_ROLLBACK_IN_PROGRESS&#45;&gt;UPDATE_ROLLBACK_FAILED -->
<g id="sad_edge23" class="edge"><title>UPDATE_ROLLBACK_IN_PROGRESS&#45;&gt;UPDATE_ROLLBACK_FAILED</title>
<path fill="none" stroke="black" d="M781.8,-484.449C808.038,-476.466 834.504,-463.818 853.805,-443.823 873.787,-423.123 879.895,-389.815 883.477,-366.29"/>
<polygon fill="black" stroke="black" points="886.961,-366.66 884.986,-356.251 880.039,-365.62 886.961,-366.66"/>
</g>
</g>
</g>
</svg>
