<?xml version="1.0" encoding="UTF-8" standalone="no"?>
<!DOCTYPE svg PUBLIC "-//W3C//DTD SVG 1.1//EN"
 "http://www.w3.org/Graphics/SVG/1.1/DTD/svg11.dtd">
<!-- Generated by graphviz version 2.40.1 (20161225.0304)
 -->
<!-- Title: all_states Pages: 1 -->
<svg width="1166pt" height="1170pt"
 viewBox="0.00 0.00 1166.39 1170.36" xmlns="http://www.w3.org/2000/svg" xmlns:xlink="http://www.w3.org/1999/xlink">
<g id="happy" class="layer">
<g id="graph0" class="graph" transform="scale(1 1) rotate(0) translate(4 1166.3574)">
<title>all_states</title>
<polygon fill="#ffffff" stroke="transparent" points="-4,4 -4,-1166.3574 1162.3893,-1166.3574 1162.3893,4 -4,4"/>
<!-- before_existence -->
<g id="node1" class="node">
<title>before_existence</title>
<ellipse fill="none" stroke="#000000" cx="928" cy="-1144.3574" rx="39.1641" ry="18"/>
<text text-anchor="middle" x="928" y="-1140.1574" font-family="Times,serif" font-size="14.00" fill="#000000">no stack</text>
</g>
<!-- REVIEW_IN_PROGRESS -->
<g id="node8" class="node">
<title>REVIEW_IN_PROGRESS</title>
<ellipse fill="none" stroke="#000000" stroke-dasharray="1,5" cx="1051" cy="-1071.3574" rx="107.2786" ry="18"/>
<text text-anchor="middle" x="1051" y="-1067.1574" font-family="Times,serif" font-size="14.00" fill="#000000">REVIEW_IN_PROGRESS</text>
</g>
<!-- before_existence&#45;&gt;REVIEW_IN_PROGRESS -->
<g id="edge3" class="edge">
<title>before_existence&#45;&gt;REVIEW_IN_PROGRESS</title>
<path fill="none" stroke="#000000" d="M952.3008,-1129.935C969.5434,-1119.7016 993.0348,-1105.7595 1012.774,-1094.0444"/>
<polygon fill="#000000" stroke="#000000" points="1014.7301,-1096.9535 1021.5433,-1088.8398 1011.1575,-1090.9338 1014.7301,-1096.9535"/>
</g>
<!-- CREATE_IN_PROGRESS -->
<g id="node9" class="node">
<title>CREATE_IN_PROGRESS</title>
<ellipse fill="none" stroke="#000000" stroke-dasharray="1,5" cx="916" cy="-998.3574" rx="106.3355" ry="18"/>
<text text-anchor="middle" x="916" y="-994.1574" font-family="Times,serif" font-size="14.00" fill="#000000">CREATE_IN_PROGRESS</text>
</g>
<!-- before_existence&#45;&gt;CREATE_IN_PROGRESS -->
<g id="edge2" class="edge">
<title>before_existence&#45;&gt;CREATE_IN_PROGRESS</title>
<path fill="none" stroke="#000000" d="M926.5045,-1126.1616C924.4564,-1101.2442 920.7584,-1056.2513 918.3415,-1026.8451"/>
<polygon fill="#000000" stroke="#000000" points="921.8219,-1026.4622 917.5144,-1016.7825 914.8454,-1027.0357 921.8219,-1026.4622"/>
</g>
<!-- after_existence -->
<g id="node2" class="node">
<title>after_existence</title>
<ellipse fill="none" stroke="#000000" cx="1010" cy="-18" rx="39.1641" ry="18"/>
<text text-anchor="middle" x="1010" y="-13.8" font-family="Times,serif" font-size="14.00" fill="#000000">no stack</text>
</g>
<!-- updateable_stack -->
<g id="node3" class="node">
<title>updateable_stack</title>
<ellipse fill="none" stroke="transparent" cx="412" cy="-809.9016" rx="88.6457" ry="25.4118"/>
<text text-anchor="middle" x="412" y="-812.7016" font-family="Times,serif" font-size="14.00" fill="#000000">an updateable stack</text>
<text text-anchor="middle" x="412" y="-798.7016" font-family="Times,serif" font-size="14.00" fill="#000000">(various states)</text>
</g>
<!-- DELETE_IN_PROGRESS -->
<g id="node6" class="node">
<title>DELETE_IN_PROGRESS</title>
<ellipse fill="none" stroke="#000000" stroke-dasharray="1,5" cx="786" cy="-177" rx="106.3096" ry="18"/>
<text text-anchor="middle" x="786" y="-172.8" font-family="Times,serif" font-size="14.00" fill="#000000">DELETE_IN_PROGRESS</text>
</g>
<!-- updateable_stack&#45;&gt;DELETE_IN_PROGRESS -->
<g id="edge29" class="edge">
<title>updateable_stack&#45;&gt;DELETE_IN_PROGRESS</title>
<path fill="none" stroke="#000000" d="M329.6159,-800.3031C209.3838,-783.9647 0,-745.6669 0,-677.0904 0,-677.0904 0,-677.0904 0,-257.4558 0,-223.9942 456.7622,-194.7944 673.8943,-182.804"/>
<polygon fill="#000000" stroke="#000000" points="674.2571,-186.2895 684.05,-182.2461 673.8731,-179.3 674.2571,-186.2895"/>
</g>
<!-- UPDATE_IN_PROGRESS -->
<g id="node18" class="node">
<title>UPDATE_IN_PROGRESS</title>
<ellipse fill="none" stroke="#000000" stroke-dasharray="1,5" cx="412" cy="-677.0904" rx="106.82" ry="18"/>
<text text-anchor="middle" x="412" y="-672.8904" font-family="Times,serif" font-size="14.00" fill="#000000">UPDATE_IN_PROGRESS</text>
</g>
<!-- updateable_stack&#45;&gt;UPDATE_IN_PROGRESS -->
<g id="edge16" class="edge">
<title>updateable_stack&#45;&gt;UPDATE_IN_PROGRESS</title>
<path fill="none" stroke="#000000" d="M412,-784.2943C412,-761.6774 412,-728.7518 412,-705.3672"/>
<polygon fill="#000000" stroke="#000000" points="415.5001,-705.3656 412,-695.3656 408.5001,-705.3656 415.5001,-705.3656"/>
</g>
<!-- DELETE_COMPLETE -->
<g id="node11" class="node">
<title>DELETE_COMPLETE</title>
<ellipse fill="none" stroke="#000000" cx="1010" cy="-104" rx="94.6982" ry="18"/>
<text text-anchor="middle" x="1010" y="-99.8" font-family="Times,serif" font-size="14.00" fill="#000000">DELETE_COMPLETE</text>
</g>
<!-- DELETE_IN_PROGRESS&#45;&gt;DELETE_COMPLETE -->
<g id="edge30" class="edge">
<title>DELETE_IN_PROGRESS&#45;&gt;DELETE_COMPLETE</title>
<path fill="none" stroke="#000000" d="M835.1578,-160.9798C869.6491,-149.7394 915.8968,-134.6676 952.1641,-122.8483"/>
<polygon fill="#000000" stroke="#000000" points="953.6873,-126.0331 962.1106,-119.6068 951.5183,-119.3777 953.6873,-126.0331"/>
</g>
<!-- CREATE_COMPLETE -->
<g id="node7" class="node">
<title>CREATE_COMPLETE</title>
<ellipse fill="none" stroke="#000000" cx="467" cy="-925.3574" rx="94.7242" ry="18"/>
<text text-anchor="middle" x="467" y="-921.1574" font-family="Times,serif" font-size="14.00" fill="#000000">CREATE_COMPLETE</text>
</g>
<!-- CREATE_COMPLETE&#45;&gt;updateable_stack -->
<g id="edge6" class="edge">
<title>CREATE_COMPLETE&#45;&gt;updateable_stack</title>
<path fill="none" stroke="#000000" d="M458.4063,-907.3175C450.4415,-890.5979 438.3758,-865.2695 428.5438,-844.6302"/>
<polygon fill="#000000" stroke="#000000" points="431.6668,-843.0477 424.2063,-835.525 425.3472,-846.0582 431.6668,-843.0477"/>
</g>
<!-- REVIEW_IN_PROGRESS&#45;&gt;CREATE_IN_PROGRESS -->
<g id="edge4" class="edge">
<title>REVIEW_IN_PROGRESS&#45;&gt;CREATE_IN_PROGRESS</title>
<path fill="none" stroke="#000000" d="M1019.0069,-1054.0575C1000.4802,-1044.0393 976.9645,-1031.3234 957.0806,-1020.5714"/>
<polygon fill="#000000" stroke="#000000" points="958.6925,-1017.4641 948.2313,-1015.7862 955.3628,-1023.6215 958.6925,-1017.4641"/>
</g>
<!-- REVIEW_IN_PROGRESS&#45;&gt;DELETE_COMPLETE -->
<g id="edge7" class="edge">
<title>REVIEW_IN_PROGRESS&#45;&gt;DELETE_COMPLETE</title>
<path fill="none" stroke="#000000" d="M1061.6711,-1053.4334C1069.2181,-1039.0554 1078,-1018.086 1078,-998.3574 1078,-998.3574 1078,-998.3574 1078,-177 1078,-156.7935 1063.8778,-139.8433 1048.5049,-127.378"/>
<polygon fill="#000000" stroke="#000000" points="1050.51,-124.5064 1040.42,-121.2748 1046.2925,-130.0933 1050.51,-124.5064"/>
</g>
<!-- CREATE_IN_PROGRESS&#45;&gt;CREATE_COMPLETE -->
<g id="edge5" class="edge">
<title>CREATE_IN_PROGRESS&#45;&gt;CREATE_COMPLETE</title>
<path fill="none" stroke="#000000" d="M839.0694,-985.8498C758.3589,-972.7276 631.965,-952.178 549.2969,-938.7376"/>
<polygon fill="#000000" stroke="#000000" points="549.6197,-935.2441 539.1876,-937.0939 548.4963,-942.1534 549.6197,-935.2441"/>
</g>
<!-- DELETE_COMPLETE&#45;&gt;after_existence -->
<g id="edge31" class="edge">
<title>DELETE_COMPLETE&#45;&gt;after_existence</title>
<path fill="none" stroke="#000000" d="M1010,-85.7616C1010,-74.3597 1010,-59.4342 1010,-46.494"/>
<polygon fill="#000000" stroke="#000000" points="1013.5001,-46.2121 1010,-36.2121 1006.5001,-46.2121 1013.5001,-46.2121"/>
<text text-anchor="middle" x="1047.5156" y="-56.8" font-family="Times,serif" font-size="14.00" fill="#000000"> 90 days later</text>
</g>
<!-- UPDATE_COMPLETE -->
<g id="node16" class="node">
<title>UPDATE_COMPLETE</title>
<ellipse fill="none" stroke="#000000" cx="683" cy="-498.8234" rx="95.2087" ry="18"/>
<text text-anchor="middle" x="683" y="-494.6234" font-family="Times,serif" font-size="14.00" fill="#000000">UPDATE_COMPLETE</text>
</g>
<!-- UPDATE_COMPLETE&#45;&gt;updateable_stack -->
<g id="edge19" class="edge">
<title>UPDATE_COMPLETE&#45;&gt;updateable_stack</title>
<path fill="none" stroke="#000000" d="M683.4708,-516.996C683.2471,-539.2031 680.2177,-577.2135 664,-604.7351 615.9158,-686.334 522.523,-749.1433 463.9263,-782.7146"/>
<polygon fill="#000000" stroke="#000000" points="462.1725,-779.6855 455.1881,-787.6522 465.6162,-785.7798 462.1725,-779.6855"/>
</g>
<!-- UPDATE_COMPLETE_CLEANUP_IN_PROGRESS -->
<g id="node17" class="node">
<title>UPDATE_COMPLETE_CLEANUP_IN_PROGRESS</title>
<ellipse fill="none" stroke="#000000" stroke-dasharray="1,5" cx="528" cy="-579.2792" rx="127.2533" ry="25.4118"/>
<text text-anchor="middle" x="528" y="-582.0792" font-family="Times,serif" font-size="14.00" fill="#000000">UPDATE_COMPLETE</text>
<text text-anchor="middle" x="528" y="-568.0792" font-family="Times,serif" font-size="14.00" fill="#000000">CLEANUP_IN_PROGRESS</text>
</g>
<!-- UPDATE_COMPLETE_CLEANUP_IN_PROGRESS&#45;&gt;UPDATE_COMPLETE -->
<g id="edge18" class="edge">
<title>UPDATE_COMPLETE_CLEANUP_IN_PROGRESS&#45;&gt;UPDATE_COMPLETE</title>
<path fill="none" stroke="#000000" d="M574.0854,-555.3576C595.3847,-544.3018 620.4946,-531.2681 641.2336,-520.503"/>
<polygon fill="#000000" stroke="#000000" points="642.8639,-523.6003 650.127,-515.8868 639.639,-517.3874 642.8639,-523.6003"/>
</g>
<!-- UPDATE_IN_PROGRESS&#45;&gt;UPDATE_COMPLETE_CLEANUP_IN_PROGRESS -->
<g id="edge17" class="edge">
<title>UPDATE_IN_PROGRESS&#45;&gt;UPDATE_COMPLETE_CLEANUP_IN_PROGRESS</title>
<path fill="none" stroke="#000000" d="M433.0067,-659.3775C449.074,-645.8296 471.6416,-626.8006 490.7489,-610.6893"/>
<polygon fill="#000000" stroke="#000000" points="493.0347,-613.3402 498.4235,-604.2182 488.5223,-607.9887 493.0347,-613.3402"/>
</g>
</g>
</g>
<g id="sad" class="layer">
<g id="sad_graph0" class="graph" transform="scale(1 1) rotate(0) translate(4 1166.3574)">
<title>all_states</title>
<polygon fill="#ffffff" stroke="transparent" points="-4,4 -4,-1166.3574 1162.3893,-1166.3574 1162.3893,4 -4,4"/>
<!-- stuck_stack -->
<g id="sad_node4_sad" class="node">
<title>stuck_stack</title>
<ellipse fill="none" stroke="transparent" cx="702" cy="-257.4558" rx="102.0376" ry="25.4118"/>
<text text-anchor="middle" x="702" y="-260.2558" font-family="Times,serif" font-size="14.00" fill="#000000">a non&#45;updateable stack</text>
<text text-anchor="middle" x="702" y="-246.2558" font-family="Times,serif" font-size="14.00" fill="#000000">(various states)</text>
</g>
<!-- stuck_stack&#45;&gt;DELETE_IN_PROGRESS -->
<g id="sad_edge15" class="edge">
<title>stuck_stack&#45;&gt;DELETE_IN_PROGRESS</title>
<path fill="none" stroke="#000000" d="M728.1177,-232.4401C738.2495,-222.7358 749.8275,-211.6463 759.9526,-201.9484"/>
<polygon fill="#000000" stroke="#000000" points="762.5634,-204.2943 767.3642,-194.8495 757.7214,-199.239 762.5634,-204.2943"/>
</g>
<!-- empty_stack -->
<g id="sad_node5_sad" class="node">
<title>empty_stack</title>
<ellipse fill="none" stroke="transparent" cx="942" cy="-677.0904" rx="107.6099" ry="35.2113"/>
<text text-anchor="middle" x="942" y="-686.8904" font-family="Times,serif" font-size="14.00" fill="#000000">non&#45;deleted stack</text>
<text text-anchor="middle" x="942" y="-672.8904" font-family="Times,serif" font-size="14.00" fill="#000000">with no extant resources</text>
<text text-anchor="middle" x="942" y="-658.8904" font-family="Times,serif" font-size="14.00" fill="#000000">(various states)</text>
</g>
<!-- empty_stack&#45;&gt;DELETE_IN_PROGRESS -->
<g id="sad_edge1" class="edge">
<title>empty_stack&#45;&gt;DELETE_IN_PROGRESS</title>
<path fill="none" stroke="#000000" d="M937.1312,-641.3914C935.0106,-622.893 933,-599.9132 933,-579.2792 933,-579.2792 933,-579.2792 933,-257.4558 933,-224.0918 903.5008,-204.4743 870.9317,-192.9826"/>
<polygon fill="#000000" stroke="#000000" points="871.815,-189.5892 861.2225,-189.8117 869.6418,-196.2434 871.815,-189.5892"/>
</g>
<!-- DELETE_FAILED -->
<g id="sad_node12_sad" class="node">
<title>DELETE_FAILED</title>
<ellipse fill="none" stroke="#000000" cx="419" cy="-337.9117" rx="78.9261" ry="18"/>
<text text-anchor="middle" x="419" y="-333.7117" font-family="Times,serif" font-size="14.00" fill="#000000">DELETE_FAILED</text>
</g>
<!-- DELETE_IN_PROGRESS&#45;&gt;DELETE_FAILED -->
<g id="sad_edge32" class="edge">
<title>DELETE_IN_PROGRESS&#45;&gt;DELETE_FAILED</title>
<path fill="none" stroke="#000000" d="M882.1201,-184.8637C921.4372,-190.3384 955.9262,-199.3721 947,-214 842.2264,-385.6981 705.5383,-287.6584 507,-319.9117 500.2779,-321.0037 493.2883,-322.247 486.3181,-323.5581"/>
<polygon fill="#000000" stroke="#000000" points="485.3098,-320.188 476.1532,-325.518 486.635,-327.0614 485.3098,-320.188"/>
</g>
<!-- CREATE_FAILED -->
<g id="sad_node10_sad" class="node">
<title>CREATE_FAILED</title>
<ellipse fill="none" stroke="#000000" cx="984" cy="-871.3574" rx="78.9521" ry="18"/>
<text text-anchor="middle" x="984" y="-867.1574" font-family="Times,serif" font-size="14.00" fill="#000000">CREATE_FAILED</text>
</g>
<!-- CREATE_IN_PROGRESS&#45;&gt;CREATE_FAILED -->
<g id="sad_edge13" class="edge">
<title>CREATE_IN_PROGRESS&#45;&gt;CREATE_FAILED</title>
<path fill="none" stroke="#000000" d="M936.1534,-980.2229C946.1431,-970.2377 957.6176,-957.1022 965,-943.3574 972.3119,-929.7439 976.9379,-913.1462 979.7921,-899.3191"/>
<polygon fill="#000000" stroke="#000000" points="983.2529,-899.8528 981.6446,-889.3807 976.3714,-898.5701 983.2529,-899.8528"/>
</g>
<!-- ROLLBACK_IN_PROGRESS -->
<g id="sad_node15_sad" class="node">
<title>ROLLBACK_IN_PROGRESS</title>
<ellipse fill="none" stroke="#000000" stroke-dasharray="1,5" cx="835" cy="-925.3574" rx="120.8351" ry="18"/>
<text text-anchor="middle" x="835" y="-921.1574" font-family="Times,serif" font-size="14.00" fill="#000000">ROLLBACK_IN_PROGRESS</text>
</g>
<!-- CREATE_IN_PROGRESS&#45;&gt;ROLLBACK_IN_PROGRESS -->
<g id="sad_edge8" class="edge">
<title>CREATE_IN_PROGRESS&#45;&gt;ROLLBACK_IN_PROGRESS</title>
<path fill="none" stroke="#000000" d="M895.9775,-980.3125C885.8744,-971.2072 873.464,-960.0225 862.4825,-950.1256"/>
<polygon fill="#000000" stroke="#000000" points="864.5637,-947.2896 854.7922,-943.1948 859.8774,-952.4895 864.5637,-947.2896"/>
</g>
<!-- CREATE_FAILED&#45;&gt;empty_stack -->
<g id="sad_edge14" class="edge">
<title>CREATE_FAILED&#45;&gt;empty_stack</title>
<path fill="none" stroke="#000000" d="M989.4568,-853.2065C990.9098,-847.5439 992.2758,-841.24 993,-835.3574 995.7647,-812.8995 997.9766,-806.5191 993,-784.4457 988.047,-762.4768 978.0476,-739.7272 968.2049,-720.8557"/>
<polygon fill="#000000" stroke="#000000" points="971.2229,-719.0777 963.4084,-711.9234 965.0558,-722.3894 971.2229,-719.0777"/>
</g>
<!-- DELETE_FAILED&#45;&gt;stuck_stack -->
<g id="sad_edge33" class="edge">
<title>DELETE_FAILED&#45;&gt;stuck_stack</title>
<path fill="none" stroke="#000000" d="M468.6187,-323.8053C511.7911,-311.5315 575.0679,-293.5422 624.8459,-279.3905"/>
<polygon fill="#000000" stroke="#000000" points="625.9498,-282.7154 634.6115,-276.6141 624.0356,-275.9822 625.9498,-282.7154"/>
</g>
<!-- ROLLBACK_COMPLETE -->
<g id="sad_node13_sad" class="node">
<title>ROLLBACK_COMPLETE</title>
<ellipse fill="none" stroke="#000000" cx="875" cy="-809.9016" rx="108.7237" ry="18"/>
<text text-anchor="middle" x="875" y="-805.7016" font-family="Times,serif" font-size="14.00" fill="#000000">ROLLBACK_COMPLETE</text>
</g>
<!-- ROLLBACK_COMPLETE&#45;&gt;empty_stack -->
<g id="sad_edge10" class="edge">
<title>ROLLBACK_COMPLETE&#45;&gt;empty_stack</title>
<path fill="none" stroke="#000000" d="M886.3274,-791.9703C891.0601,-784.2294 896.4941,-775.0027 901,-766.4457 908.5673,-752.0749 916.1737,-736.0418 922.7446,-721.5677"/>
<polygon fill="#000000" stroke="#000000" points="925.9963,-722.8704 926.9023,-712.3144 919.6112,-720.0014 925.9963,-722.8704"/>
</g>
<!-- ROLLBACK_FAILED -->
<g id="sad_node14_sad" class="node">
<title>ROLLBACK_FAILED</title>
<ellipse fill="none" stroke="#000000" cx="799" cy="-748.4457" rx="92.9509" ry="18"/>
<text text-anchor="middle" x="799" y="-744.2457" font-family="Times,serif" font-size="14.00" fill="#000000">ROLLBACK_FAILED</text>
</g>
<!-- ROLLBACK_FAILED&#45;&gt;stuck_stack -->
<g id="sad_edge12" class="edge">
<title>ROLLBACK_FAILED&#45;&gt;stuck_stack</title>
<path fill="none" stroke="#000000" d="M800.6589,-730.2157C802.7289,-705.8568 806,-661.3359 806,-623.2351 806,-623.2351 806,-623.2351 806,-337.9117 806,-314.1422 788.7947,-296.3984 768.3801,-283.7108"/>
<polygon fill="#000000" stroke="#000000" points="769.8873,-280.5398 759.4753,-278.5799 766.3926,-286.6051 769.8873,-280.5398"/>
</g>
<!-- ROLLBACK_IN_PROGRESS&#45;&gt;ROLLBACK_COMPLETE -->
<g id="sad_edge9" class="edge">
<title>ROLLBACK_IN_PROGRESS&#45;&gt;ROLLBACK_COMPLETE</title>
<path fill="none" stroke="#000000" d="M841.25,-907.3175C847.6993,-888.7022 857.8459,-859.4152 865.3311,-837.81"/>
<polygon fill="#000000" stroke="#000000" points="868.6953,-838.7907 868.6619,-828.1959 862.081,-836.4991 868.6953,-838.7907"/>
</g>
<!-- ROLLBACK_IN_PROGRESS&#45;&gt;ROLLBACK_FAILED -->
<g id="sad_edge11" class="edge">
<title>ROLLBACK_IN_PROGRESS&#45;&gt;ROLLBACK_FAILED</title>
<path fill="none" stroke="#000000" d="M812.2788,-907.4447C793.4229,-891.011 767.9844,-864.8036 757,-835.3574 749.0915,-814.157 747.545,-805.003 757,-784.4457 758.9024,-780.3095 761.5405,-776.4707 764.5765,-772.9609"/>
<polygon fill="#000000" stroke="#000000" points="767.1277,-775.3596 771.7276,-765.8155 762.1798,-770.4079 767.1277,-775.3596"/>
</g>
<!-- UPDATE_ROLLBACK_IN_PROGRESS -->
<g id="sad_node22_sad" class="node">
<title>UPDATE_ROLLBACK_IN_PROGRESS</title>
<ellipse fill="none" stroke="#000000" stroke-dasharray="1,5" cx="411" cy="-498.8234" rx="158.9811" ry="18"/>
<text text-anchor="middle" x="411" y="-494.6234" font-family="Times,serif" font-size="14.00" fill="#000000">UPDATE_ROLLBACK_IN_PROGRESS</text>
</g>
<!-- UPDATE_COMPLETE_CLEANUP_IN_PROGRESS&#45;&gt;UPDATE_ROLLBACK_IN_PROGRESS -->
<g id="sad_edge20" class="edge">
<title>UPDATE_COMPLETE_CLEANUP_IN_PROGRESS&#45;&gt;UPDATE_ROLLBACK_IN_PROGRESS</title>
<path fill="none" stroke="#000000" d="M492.2604,-554.7026C477.3173,-544.427 460.027,-532.5371 445.2466,-522.3733"/>
<polygon fill="#000000" stroke="#000000" points="447.0938,-519.3959 436.8708,-516.6136 443.1275,-525.1638 447.0938,-519.3959"/>
</g>
<!-- UPDATE_IN_PROGRESS&#45;&gt;UPDATE_ROLLBACK_IN_PROGRESS -->
<g id="sad_edge21" class="edge">
<title>UPDATE_IN_PROGRESS&#45;&gt;UPDATE_ROLLBACK_IN_PROGRESS</title>
<path fill="none" stroke="#000000" d="M405.5123,-658.9374C400.7034,-644.4727 394.5579,-623.5902 392,-604.7351 388.9582,-582.313 388.2542,-576.1386 392,-553.8234 393.5266,-544.7291 396.3802,-535.1275 399.4203,-526.5367"/>
<polygon fill="#000000" stroke="#000000" points="402.7601,-527.5991 403.0066,-517.0071 396.2087,-525.1335 402.7601,-527.5991"/>
</g>
<!-- UPDATE_ROLLBACK_COMPLETE -->
<g id="sad_node19_sad" class="node">
<title>UPDATE_ROLLBACK_COMPLETE</title>
<ellipse fill="none" stroke="#000000" cx="175" cy="-337.9117" rx="147.37" ry="18"/>
<text text-anchor="middle" x="175" y="-333.7117" font-family="Times,serif" font-size="14.00" fill="#000000">UPDATE_ROLLBACK_COMPLETE</text>
</g>
<!-- UPDATE_ROLLBACK_COMPLETE&#45;&gt;updateable_stack -->
<g id="sad_edge25" class="edge">
<title>UPDATE_ROLLBACK_COMPLETE&#45;&gt;updateable_stack</title>
<path fill="none" stroke="#000000" d="M182.5815,-356.0939C188.5967,-372.1753 196,-396.4248 196,-418.3675 196,-677.0904 196,-677.0904 196,-677.0904 196,-741.6213 266.8237,-775.7967 327.3617,-793.2217"/>
<polygon fill="#000000" stroke="#000000" points="326.792,-796.6951 337.3626,-795.9784 328.6523,-789.9468 326.792,-796.6951"/>
</g>
<!-- UPDATE_ROLLBACK_COMPLETE_CLEANUP_IN_PROGRESS -->
<g id="sad_node20_sad" class="node">
<title>UPDATE_ROLLBACK_COMPLETE_CLEANUP_IN_PROGRESS</title>
<ellipse fill="none" stroke="#000000" stroke-dasharray="1,5" cx="411" cy="-418.3675" rx="164.5218" ry="25.4118"/>
<text text-anchor="middle" x="411" y="-421.1675" font-family="Times,serif" font-size="14.00" fill="#000000">UPDATE_ROLLBACK_COMPLETE</text>
<text text-anchor="middle" x="411" y="-407.1675" font-family="Times,serif" font-size="14.00" fill="#000000">CLEANUP_IN_PROGRESS</text>
</g>
<!-- UPDATE_ROLLBACK_COMPLETE_CLEANUP_IN_PROGRESS&#45;&gt;UPDATE_ROLLBACK_COMPLETE -->
<g id="sad_edge23" class="edge">
<title>UPDATE_ROLLBACK_COMPLETE_CLEANUP_IN_PROGRESS&#45;&gt;UPDATE_ROLLBACK_COMPLETE</title>
<path fill="none" stroke="#000000" d="M342.739,-395.0964C308.4182,-383.3959 267.2261,-369.3529 234.2513,-358.1113"/>
<polygon fill="#000000" stroke="#000000" points="235.3354,-354.7832 224.7409,-354.8691 233.0766,-361.4087 235.3354,-354.7832"/>
</g>
<!-- UPDATE_ROLLBACK_FAILED -->
<g id="sad_node21_sad" class="node">
<title>UPDATE_ROLLBACK_FAILED</title>
<ellipse fill="none" stroke="#000000" cx="647" cy="-337.9117" rx="131.0975" ry="18"/>
<text text-anchor="middle" x="647" y="-333.7117" font-family="Times,serif" font-size="14.00" fill="#000000">UPDATE_ROLLBACK_FAILED</text>
</g>
<!-- UPDATE_ROLLBACK_COMPLETE_CLEANUP_IN_PROGRESS&#45;&gt;UPDATE_ROLLBACK_FAILED -->
<g id="sad_edge24" class="edge">
<title>UPDATE_ROLLBACK_COMPLETE_CLEANUP_IN_PROGRESS&#45;&gt;UPDATE_ROLLBACK_FAILED</title>
<path fill="none" stroke="#000000" d="M479.261,-395.0964C513.8296,-383.3114 555.3691,-369.15 588.4617,-357.8682"/>
<polygon fill="#000000" stroke="#000000" points="589.6642,-361.1562 597.9999,-354.6165 587.4054,-354.5306 589.6642,-361.1562"/>
</g>
<!-- UPDATE_ROLLBACK_FAILED&#45;&gt;stuck_stack -->
<g id="sad_edge27" class="edge">
<title>UPDATE_ROLLBACK_FAILED&#45;&gt;stuck_stack</title>
<path fill="none" stroke="#000000" d="M659.4804,-319.655C665.2655,-311.1923 672.3299,-300.8583 679.0261,-291.0629"/>
<polygon fill="#000000" stroke="#000000" points="682.0204,-292.8846 684.7745,-282.6539 676.2416,-288.9341 682.0204,-292.8846"/>
</g>
<!-- UPDATE_ROLLBACK_FAILED&#45;&gt;UPDATE_ROLLBACK_IN_PROGRESS -->
<g id="sad_edge28" class="edge">
<title>UPDATE_ROLLBACK_FAILED&#45;&gt;UPDATE_ROLLBACK_IN_PROGRESS</title>
<path fill="none" stroke="#000000" d="M647.1839,-356.025C641.4131,-379.6108 623.1405,-420.5621 594,-443.8234 571.8511,-461.5036 543.9359,-473.5434 516.6045,-481.7258"/>
<polygon fill="#000000" stroke="#000000" points="515.6348,-478.3627 506.9718,-484.4621 517.5476,-485.0963 515.6348,-478.3627"/>
</g>
<!-- UPDATE_ROLLBACK_IN_PROGRESS&#45;&gt;UPDATE_ROLLBACK_COMPLETE_CLEANUP_IN_PROGRESS -->
<g id="sad_edge22" class="edge">
<title>UPDATE_ROLLBACK_IN_PROGRESS&#45;&gt;UPDATE_ROLLBACK_COMPLETE_CLEANUP_IN_PROGRESS</title>
<path fill="none" stroke="#000000" d="M411,-480.5667C411,-472.6843 411,-463.1784 411,-453.9963"/>
<polygon fill="#000000" stroke="#000000" points="414.5001,-453.8709 411,-443.8709 407.5001,-453.8709 414.5001,-453.8709"/>
</g>
<!-- UPDATE_ROLLBACK_IN_PROGRESS&#45;&gt;UPDATE_ROLLBACK_FAILED -->
<g id="sad_edge26" class="edge">
<title>UPDATE_ROLLBACK_IN_PROGRESS&#45;&gt;UPDATE_ROLLBACK_FAILED</title>
<path fill="none" stroke="#000000" d="M494.0062,-483.3329C522.1355,-475.1453 552.3539,-462.6988 576,-443.8234 601.6117,-423.3789 618.8283,-389.2693 630.4442,-365.295"/>
<polygon fill="#000000" stroke="#000000" points="633.7249,-366.5507 634.9339,-356.025 627.4249,-363.4994 633.7249,-366.5507"/>
</g>
</g>
</g>
</svg>
