<?xml version="1.0" encoding="UTF-8" standalone="no"?>
<!DOCTYPE svg PUBLIC "-//W3C//DTD SVG 1.1//EN"
 "http://www.w3.org/Graphics/SVG/1.1/DTD/svg11.dtd">
<!-- Generated by graphviz version 2.38.0 (20140413.2041)
 -->
<!-- Title: all_states Pages: 1 -->
<svg width="1067pt" height="1097pt"
 viewBox="0.00 0.00 1066.80 1097.36" xmlns="http://www.w3.org/2000/svg" xmlns:xlink="http://www.w3.org/1999/xlink">
<g id="happy" class="layer">
<g id="graph0" class="graph" transform="scale(1 1) rotate(0) translate(4 1093.36)">
<title>all_states</title>
<polygon fill="white" stroke="none" points="-4,4 -4,-1093.36 1062.8,-1093.36 1062.8,4 -4,4"/>
<!-- before_existence -->
<g id="node1" class="node"><title>before_existence</title>
<ellipse fill="none" stroke="black" cx="320.805" cy="-1071.36" rx="39.1641" ry="18"/>
<text text-anchor="middle" x="320.805" y="-1067.16" font-family="Times,serif" font-size="14.00">no stack</text>
</g>
<!-- CREATE_IN_PROGRESS -->
<g id="node8" class="node"><title>CREATE_IN_PROGRESS</title>
<ellipse fill="none" stroke="black" stroke-dasharray="1,5" cx="320.805" cy="-998.357" rx="106.335" ry="18"/>
<text text-anchor="middle" x="320.805" y="-994.157" font-family="Times,serif" font-size="14.00">CREATE_IN_PROGRESS</text>
</g>
<!-- before_existence&#45;&gt;CREATE_IN_PROGRESS -->
<g id="edge2" class="edge"><title>before_existence&#45;&gt;CREATE_IN_PROGRESS</title>
<path fill="none" stroke="black" d="M320.805,-1053.17C320.805,-1045.15 320.805,-1035.4 320.805,-1026.43"/>
<polygon fill="black" stroke="black" points="324.305,-1026.39 320.805,-1016.39 317.305,-1026.39 324.305,-1026.39"/>
</g>
<!-- after_existence -->
<g id="node2" class="node"><title>after_existence</title>
<ellipse fill="none" stroke="black" cx="350.805" cy="-18" rx="39.1641" ry="18"/>
<text text-anchor="middle" x="350.805" y="-13.8" font-family="Times,serif" font-size="14.00">no stack</text>
</g>
<!-- updateable_stack -->
<g id="node3" class="node"><title>updateable_stack</title>
<ellipse fill="none" stroke="none" cx="670.805" cy="-809.902" rx="88.6457" ry="25.4118"/>
<text text-anchor="middle" x="670.805" y="-812.702" font-family="Times,serif" font-size="14.00">an updateable stack</text>
<text text-anchor="middle" x="670.805" y="-798.702" font-family="Times,serif" font-size="14.00">(various states)</text>
</g>
<!-- DELETE_IN_PROGRESS -->
<g id="node6" class="node"><title>DELETE_IN_PROGRESS</title>
<ellipse fill="none" stroke="black" stroke-dasharray="1,5" cx="350.805" cy="-177" rx="106.31" ry="18"/>
<text text-anchor="middle" x="350.805" y="-172.8" font-family="Times,serif" font-size="14.00">DELETE_IN_PROGRESS</text>
</g>
<!-- updateable_stack&#45;&gt;DELETE_IN_PROGRESS -->
<g id="edge25" class="edge"><title>updateable_stack&#45;&gt;DELETE_IN_PROGRESS</title>
<path fill="none" stroke="black" d="M750.259,-798.505C863.773,-781.391 1058.8,-742.601 1058.8,-678.09 1058.8,-678.09 1058.8,-678.09 1058.8,-256.456 1058.8,-197.624 667.627,-182.905 466.805,-179.225"/>
<polygon fill="black" stroke="black" points="466.86,-175.726 456.8,-179.048 466.736,-182.725 466.86,-175.726"/>
</g>
<!-- UPDATE_IN_PROGRESS -->
<g id="node17" class="node"><title>UPDATE_IN_PROGRESS</title>
<ellipse fill="none" stroke="black" stroke-dasharray="1,5" cx="670.805" cy="-677.09" rx="106.82" ry="18"/>
<text text-anchor="middle" x="670.805" y="-672.89" font-family="Times,serif" font-size="14.00">UPDATE_IN_PROGRESS</text>
</g>
<!-- updateable_stack&#45;&gt;UPDATE_IN_PROGRESS -->
<g id="edge13" class="edge"><title>updateable_stack&#45;&gt;UPDATE_IN_PROGRESS</title>
<path fill="none" stroke="black" d="M670.805,-784.297C670.805,-761.807 670.805,-728.602 670.805,-705.323"/>
<polygon fill="black" stroke="black" points="674.305,-705.091 670.805,-695.091 667.305,-705.091 674.305,-705.091"/>
</g>
<!-- DELETE_COMPLETE -->
<g id="node10" class="node"><title>DELETE_COMPLETE</title>
<ellipse fill="none" stroke="black" cx="350.805" cy="-104" rx="94.6982" ry="18"/>
<text text-anchor="middle" x="350.805" y="-99.8" font-family="Times,serif" font-size="14.00">DELETE_COMPLETE</text>
</g>
<!-- DELETE_IN_PROGRESS&#45;&gt;DELETE_COMPLETE -->
<g id="edge26" class="edge"><title>DELETE_IN_PROGRESS&#45;&gt;DELETE_COMPLETE</title>
<path fill="none" stroke="black" d="M350.805,-158.813C350.805,-150.789 350.805,-141.047 350.805,-132.069"/>
<polygon fill="black" stroke="black" points="354.305,-132.029 350.805,-122.029 347.305,-132.029 354.305,-132.029"/>
</g>
<!-- CREATE_COMPLETE -->
<g id="node7" class="node"><title>CREATE_COMPLETE</title>
<ellipse fill="none" stroke="black" cx="565.805" cy="-925.357" rx="94.7242" ry="18"/>
<text text-anchor="middle" x="565.805" y="-921.157" font-family="Times,serif" font-size="14.00">CREATE_COMPLETE</text>
</g>
<!-- CREATE_COMPLETE&#45;&gt;updateable_stack -->
<g id="edge4" class="edge"><title>CREATE_COMPLETE&#45;&gt;updateable_stack</title>
<path fill="none" stroke="black" d="M581.752,-907.126C597.694,-889.9 622.562,-863.029 641.972,-842.056"/>
<polygon fill="black" stroke="black" points="644.626,-844.342 648.849,-834.625 639.488,-839.587 644.626,-844.342"/>
</g>
<!-- CREATE_IN_PROGRESS&#45;&gt;CREATE_COMPLETE -->
<g id="edge3" class="edge"><title>CREATE_IN_PROGRESS&#45;&gt;CREATE_COMPLETE</title>
<path fill="none" stroke="black" d="M371.867,-982.56C411.075,-971.197 465.293,-955.485 506.436,-943.562"/>
<polygon fill="black" stroke="black" points="507.435,-946.917 516.065,-940.772 505.486,-940.194 507.435,-946.917"/>
</g>
<!-- DELETE_COMPLETE&#45;&gt;after_existence -->
<g id="edge27" class="edge"><title>DELETE_COMPLETE&#45;&gt;after_existence</title>
<path fill="none" stroke="black" d="M350.805,-85.5951C350.805,-74.2572 350.805,-59.2271 350.805,-46.3153"/>
<polygon fill="black" stroke="black" points="354.305,-46.0951 350.805,-36.0952 347.305,-46.0952 354.305,-46.0951"/>
<text text-anchor="middle" x="388.32" y="-56.8" font-family="Times,serif" font-size="14.00"> 90 days later</text>
</g>
<!-- UPDATE_COMPLETE -->
<g id="node15" class="node"><title>UPDATE_COMPLETE</title>
<ellipse fill="none" stroke="black" cx="935.805" cy="-498.823" rx="95.2087" ry="18"/>
<text text-anchor="middle" x="935.805" y="-494.623" font-family="Times,serif" font-size="14.00">UPDATE_COMPLETE</text>
</g>
<!-- UPDATE_COMPLETE&#45;&gt;updateable_stack -->
<g id="edge16" class="edge"><title>UPDATE_COMPLETE&#45;&gt;updateable_stack</title>
<path fill="none" stroke="black" d="M936.201,-517.037C935.954,-538.894 932.955,-577.083 916.805,-604.735 869.643,-685.483 778.003,-748.38 720.86,-781.946"/>
<polygon fill="black" stroke="black" points="718.896,-779.038 711.997,-787.079 722.404,-785.096 718.896,-779.038"/>
</g>
<!-- UPDATE_COMPLETE_CLEANUP_IN_PROGRESS -->
<g id="node16" class="node"><title>UPDATE_COMPLETE_CLEANUP_IN_PROGRESS</title>
<ellipse fill="none" stroke="black" stroke-dasharray="1,5" cx="780.805" cy="-579.279" rx="127.253" ry="25.4118"/>
<text text-anchor="middle" x="780.805" y="-582.079" font-family="Times,serif" font-size="14.00">UPDATE_COMPLETE</text>
<text text-anchor="middle" x="780.805" y="-568.079" font-family="Times,serif" font-size="14.00">CLEANUP_IN_PROGRESS</text>
</g>
<!-- UPDATE_COMPLETE_CLEANUP_IN_PROGRESS&#45;&gt;UPDATE_COMPLETE -->
<g id="edge15" class="edge"><title>UPDATE_COMPLETE_CLEANUP_IN_PROGRESS&#45;&gt;UPDATE_COMPLETE</title>
<path fill="none" stroke="black" d="M826.054,-555.376C847.848,-544.344 873.785,-531.216 894.97,-520.492"/>
<polygon fill="black" stroke="black" points="896.693,-523.543 904.035,-515.904 893.532,-517.298 896.693,-523.543"/>
</g>
<!-- UPDATE_IN_PROGRESS&#45;&gt;UPDATE_COMPLETE_CLEANUP_IN_PROGRESS -->
<g id="edge14" class="edge"><title>UPDATE_IN_PROGRESS&#45;&gt;UPDATE_COMPLETE_CLEANUP_IN_PROGRESS</title>
<path fill="none" stroke="black" d="M690.217,-659.182C705.544,-645.832 727.333,-626.854 745.7,-610.856"/>
<polygon fill="black" stroke="black" points="748.091,-613.415 753.333,-604.207 743.494,-608.136 748.091,-613.415"/>
</g>
</g>
</g>
<g id="sad" class="layer">
<g id="sad_graph0" class="graph" transform="scale(1 1) rotate(0) translate(4 1093.36)">
<title>all_states</title>
<polygon fill="white" stroke="none" points="-4,4 -4,-1093.36 1062.8,-1093.36 1062.8,4 -4,4"/>
<!-- stuck_stack -->
<g id="sad_node4_sad" class="node"><title>stuck_stack</title>
<ellipse fill="none" stroke="none" cx="350.805" cy="-257.456" rx="102.038" ry="25.4118"/>
<text text-anchor="middle" x="350.805" y="-260.256" font-family="Times,serif" font-size="14.00">a non&#45;updateable stack</text>
<text text-anchor="middle" x="350.805" y="-246.256" font-family="Times,serif" font-size="14.00">(various states)</text>
</g>
<!-- stuck_stack&#45;&gt;DELETE_IN_PROGRESS -->
<g id="sad_edge12" class="edge"><title>stuck_stack&#45;&gt;DELETE_IN_PROGRESS</title>
<path fill="none" stroke="black" d="M350.805,-231.632C350.805,-223.299 350.805,-213.958 350.805,-205.437"/>
<polygon fill="black" stroke="black" points="354.305,-205.217 350.805,-195.217 347.305,-205.218 354.305,-205.217"/>
</g>
<!-- empty_stack -->
<g id="sad_node5_sad" class="node"><title>empty_stack</title>
<ellipse fill="none" stroke="none" cx="107.805" cy="-677.09" rx="107.61" ry="35.2113"/>
<text text-anchor="middle" x="107.805" y="-686.89" font-family="Times,serif" font-size="14.00">non&#45;deleted stack</text>
<text text-anchor="middle" x="107.805" y="-672.89" font-family="Times,serif" font-size="14.00">with no extant resources</text>
<text text-anchor="middle" x="107.805" y="-658.89" font-family="Times,serif" font-size="14.00">(various states)</text>
</g>
<!-- empty_stack&#45;&gt;DELETE_IN_PROGRESS -->
<g id="sad_edge1" class="edge"><title>empty_stack&#45;&gt;DELETE_IN_PROGRESS</title>
<path fill="none" stroke="black" d="M134.599,-642.682C146.038,-625.152 156.805,-602.699 156.805,-580.279 156.805,-580.279 156.805,-580.279 156.805,-256.456 156.805,-214.32 196.623,-194.26 240.18,-184.922"/>
<polygon fill="black" stroke="black" points="240.968,-188.334 250.111,-182.982 239.626,-181.464 240.968,-188.334"/>
</g>
<!-- DELETE_FAILED -->
<g id="sad_node11_sad" class="node"><title>DELETE_FAILED</title>
<ellipse fill="none" stroke="black" cx="350.805" cy="-337.912" rx="78.9261" ry="18"/>
<text text-anchor="middle" x="350.805" y="-333.712" font-family="Times,serif" font-size="14.00">DELETE_FAILED</text>
</g>
<!-- DELETE_IN_PROGRESS&#45;&gt;DELETE_FAILED -->
<g id="sad_edge28" class="edge"><title>DELETE_IN_PROGRESS&#45;&gt;DELETE_FAILED</title>
<path fill="none" stroke="black" d="M408.355,-192.172C428.855,-200.292 449.814,-212.833 461.805,-232 473.805,-251.183 473.805,-263.729 461.805,-282.912 450.719,-300.633 431.967,-312.689 413,-320.825"/>
<polygon fill="black" stroke="black" points="411.709,-317.571 403.704,-324.511 414.29,-324.078 411.709,-317.571"/>
</g>
<!-- CREATE_FAILED -->
<g id="sad_node9_sad" class="node"><title>CREATE_FAILED</title>
<ellipse fill="none" stroke="black" cx="101.805" cy="-871.357" rx="78.9521" ry="18"/>
<text text-anchor="middle" x="101.805" y="-867.157" font-family="Times,serif" font-size="14.00">CREATE_FAILED</text>
</g>
<!-- CREATE_IN_PROGRESS&#45;&gt;CREATE_FAILED -->
<g id="sad_edge10" class="edge"><title>CREATE_IN_PROGRESS&#45;&gt;CREATE_FAILED</title>
<path fill="none" stroke="black" d="M275.4,-982.066C249.732,-972.556 217.529,-959.143 190.805,-943.357 167.843,-929.794 144.363,-910.806 127.289,-895.879"/>
<polygon fill="black" stroke="black" points="129.254,-892.942 119.453,-888.919 124.605,-898.176 129.254,-892.942"/>
</g>
<!-- ROLLBACK_IN_PROGRESS -->
<g id="sad_node14_sad" class="node"><title>ROLLBACK_IN_PROGRESS</title>
<ellipse fill="none" stroke="black" stroke-dasharray="1,5" cx="320.805" cy="-925.357" rx="120.835" ry="18"/>
<text text-anchor="middle" x="320.805" y="-921.157" font-family="Times,serif" font-size="14.00">ROLLBACK_IN_PROGRESS</text>
</g>
<!-- CREATE_IN_PROGRESS&#45;&gt;ROLLBACK_IN_PROGRESS -->
<g id="sad_edge5" class="edge"><title>CREATE_IN_PROGRESS&#45;&gt;ROLLBACK_IN_PROGRESS</title>
<path fill="none" stroke="black" d="M320.805,-980.17C320.805,-972.147 320.805,-962.405 320.805,-953.427"/>
<polygon fill="black" stroke="black" points="324.305,-953.386 320.805,-943.386 317.305,-953.386 324.305,-953.386"/>
</g>
<!-- CREATE_FAILED&#45;&gt;empty_stack -->
<g id="sad_edge11" class="edge"><title>CREATE_FAILED&#45;&gt;empty_stack</title>
<path fill="none" stroke="black" d="M100.633,-853.276C100.294,-847.58 99.9715,-841.198 99.8048,-835.357 99.1591,-812.739 98.9556,-807.057 99.8048,-784.446 100.567,-764.15 102.145,-741.721 103.699,-722.713"/>
<polygon fill="black" stroke="black" points="107.204,-722.798 104.555,-712.54 100.229,-722.212 107.204,-722.798"/>
</g>
<!-- DELETE_FAILED&#45;&gt;stuck_stack -->
<g id="sad_edge29" class="edge"><title>DELETE_FAILED&#45;&gt;stuck_stack</title>
<path fill="none" stroke="black" d="M350.805,-319.888C350.805,-312.095 350.805,-302.558 350.805,-293.345"/>
<polygon fill="black" stroke="black" points="354.305,-293.191 350.805,-283.191 347.305,-293.191 354.305,-293.191"/>
</g>
<!-- ROLLBACK_COMPLETE -->
<g id="sad_node12_sad" class="node"><title>ROLLBACK_COMPLETE</title>
<ellipse fill="none" stroke="black" cx="217.805" cy="-809.902" rx="108.724" ry="18"/>
<text text-anchor="middle" x="217.805" y="-805.702" font-family="Times,serif" font-size="14.00">ROLLBACK_COMPLETE</text>
</g>
<!-- ROLLBACK_COMPLETE&#45;&gt;empty_stack -->
<g id="sad_edge7" class="edge"><title>ROLLBACK_COMPLETE&#45;&gt;empty_stack</title>
<path fill="none" stroke="black" d="M203.424,-791.8C187.975,-773.428 162.864,-743.567 142.252,-719.055"/>
<polygon fill="black" stroke="black" points="144.851,-716.707 135.736,-711.306 139.493,-721.212 144.851,-716.707"/>
</g>
<!-- ROLLBACK_FAILED -->
<g id="sad_node13_sad" class="node"><title>ROLLBACK_FAILED</title>
<ellipse fill="none" stroke="black" cx="310.805" cy="-748.446" rx="92.9509" ry="18"/>
<text text-anchor="middle" x="310.805" y="-744.246" font-family="Times,serif" font-size="14.00">ROLLBACK_FAILED</text>
</g>
<!-- ROLLBACK_FAILED&#45;&gt;stuck_stack -->
<g id="sad_edge9" class="edge"><title>ROLLBACK_FAILED&#45;&gt;stuck_stack</title>
<path fill="none" stroke="black" d="M294.586,-730.58C274.757,-708.113 243.805,-666.235 243.805,-623.735 243.805,-623.735 243.805,-623.735 243.805,-336.912 243.805,-312.819 261.665,-295.318 282.791,-283.043"/>
<polygon fill="black" stroke="black" points="284.525,-286.084 291.672,-278.263 281.207,-279.92 284.525,-286.084"/>
</g>
<!-- ROLLBACK_IN_PROGRESS&#45;&gt;ROLLBACK_COMPLETE -->
<g id="sad_edge6" class="edge"><title>ROLLBACK_IN_PROGRESS&#45;&gt;ROLLBACK_COMPLETE</title>
<path fill="none" stroke="black" d="M305.161,-907.126C287.819,-888.023 259.708,-857.058 240.073,-835.43"/>
<polygon fill="black" stroke="black" points="242.571,-832.975 233.258,-827.924 237.388,-837.68 242.571,-832.975"/>
</g>
<!-- ROLLBACK_IN_PROGRESS&#45;&gt;ROLLBACK_FAILED -->
<g id="sad_edge8" class="edge"><title>ROLLBACK_IN_PROGRESS&#45;&gt;ROLLBACK_FAILED</title>
<path fill="none" stroke="black" d="M327.096,-907.101C335.921,-880.221 349.448,-827.019 335.805,-784.446 334.779,-781.246 333.342,-778.089 331.669,-775.06"/>
<polygon fill="black" stroke="black" points="334.475,-772.952 326.121,-766.437 328.588,-776.74 334.475,-772.952"/>
</g>
<!-- UPDATE_ROLLBACK_IN_PROGRESS -->
<g id="sad_node21_sad" class="node"><title>UPDATE_ROLLBACK_IN_PROGRESS</title>
<ellipse fill="none" stroke="black" stroke-dasharray="1,5" cx="663.805" cy="-498.823" rx="158.981" ry="18"/>
<text text-anchor="middle" x="663.805" y="-494.623" font-family="Times,serif" font-size="14.00">UPDATE_ROLLBACK_IN_PROGRESS</text>
</g>
<!-- UPDATE_COMPLETE_CLEANUP_IN_PROGRESS&#45;&gt;UPDATE_ROLLBACK_IN_PROGRESS -->
<g id="sad_edge17" class="edge"><title>UPDATE_COMPLETE_CLEANUP_IN_PROGRESS&#45;&gt;UPDATE_ROLLBACK_IN_PROGRESS</title>
<path fill="none" stroke="black" d="M745.701,-554.74C730.396,-544.477 712.533,-532.499 697.403,-522.353"/>
<polygon fill="black" stroke="black" points="699.105,-519.28 688.85,-516.618 695.207,-525.094 699.105,-519.28"/>
</g>
<!-- UPDATE_IN_PROGRESS&#45;&gt;UPDATE_ROLLBACK_IN_PROGRESS -->
<g id="sad_edge18" class="edge"><title>UPDATE_IN_PROGRESS&#45;&gt;UPDATE_ROLLBACK_IN_PROGRESS</title>
<path fill="none" stroke="black" d="M662.638,-658.967C656.357,-644.798 648.197,-623.952 644.805,-604.735 640.872,-582.452 640.995,-576.128 644.805,-553.823 646.368,-544.67 649.321,-535.004 652.442,-526.42"/>
<polygon fill="black" stroke="black" points="655.767,-527.525 656.108,-516.935 649.238,-525.001 655.767,-527.525"/>
</g>
<!-- UPDATE_ROLLBACK_COMPLETE -->
<g id="sad_node18_sad" class="node"><title>UPDATE_ROLLBACK_COMPLETE</title>
<ellipse fill="none" stroke="black" cx="594.805" cy="-337.912" rx="147.37" ry="18"/>
<text text-anchor="middle" x="594.805" y="-333.712" font-family="Times,serif" font-size="14.00">UPDATE_ROLLBACK_COMPLETE</text>
</g>
<!-- UPDATE_ROLLBACK_COMPLETE&#45;&gt;updateable_stack -->
<g id="sad_edge22" class="edge"><title>UPDATE_ROLLBACK_COMPLETE&#45;&gt;updateable_stack</title>
<path fill="none" stroke="black" d="M535.805,-354.523C506.305,-366.264 476.805,-385.878 476.805,-417.368 476.805,-678.09 476.805,-678.09 476.805,-678.09 476.805,-737.392 539.891,-771.598 594.114,-790.046"/>
<polygon fill="black" stroke="black" points="593.177,-793.422 603.769,-793.201 595.351,-786.768 593.177,-793.422"/>
</g>
<!-- UPDATE_ROLLBACK_COMPLETE_CLEANUP_IN_PROGRESS -->
<g id="sad_node19_sad" class="node"><title>UPDATE_ROLLBACK_COMPLETE_CLEANUP_IN_PROGRESS</title>
<ellipse fill="none" stroke="black" stroke-dasharray="1,5" cx="669.805" cy="-418.368" rx="164.522" ry="25.4118"/>
<text text-anchor="middle" x="669.805" y="-421.168" font-family="Times,serif" font-size="14.00">UPDATE_ROLLBACK_COMPLETE</text>
<text text-anchor="middle" x="669.805" y="-407.168" font-family="Times,serif" font-size="14.00">CLEANUP_IN_PROGRESS</text>
</g>
<!-- UPDATE_ROLLBACK_COMPLETE_CLEANUP_IN_PROGRESS&#45;&gt;UPDATE_ROLLBACK_COMPLETE -->
<g id="sad_edge20" class="edge"><title>UPDATE_ROLLBACK_COMPLETE_CLEANUP_IN_PROGRESS&#45;&gt;UPDATE_ROLLBACK_COMPLETE</title>
<path fill="none" stroke="black" d="M646.485,-392.974C637.392,-383.461 626.994,-372.584 617.92,-363.092"/>
<polygon fill="black" stroke="black" points="620.418,-360.64 610.978,-355.83 615.358,-365.477 620.418,-360.64"/>
</g>
<!-- UPDATE_ROLLBACK_FAILED -->
<g id="sad_node20_sad" class="node"><title>UPDATE_ROLLBACK_FAILED</title>
<ellipse fill="none" stroke="black" cx="890.805" cy="-337.912" rx="131.097" ry="18"/>
<text text-anchor="middle" x="890.805" y="-333.712" font-family="Times,serif" font-size="14.00">UPDATE_ROLLBACK_FAILED</text>
</g>
<!-- UPDATE_ROLLBACK_COMPLETE_CLEANUP_IN_PROGRESS&#45;&gt;UPDATE_ROLLBACK_FAILED -->
<g id="sad_edge21" class="edge"><title>UPDATE_ROLLBACK_COMPLETE_CLEANUP_IN_PROGRESS&#45;&gt;UPDATE_ROLLBACK_FAILED</title>
<path fill="none" stroke="black" d="M733.431,-394.78C765.878,-383.261 804.945,-369.392 836.037,-358.354"/>
<polygon fill="black" stroke="black" points="837.581,-361.521 845.833,-354.877 835.239,-354.924 837.581,-361.521"/>
</g>
<!-- UPDATE_ROLLBACK_FAILED&#45;&gt;stuck_stack -->
<g id="sad_edge24" class="edge"><title>UPDATE_ROLLBACK_FAILED&#45;&gt;stuck_stack</title>
<path fill="none" stroke="black" d="M804.344,-324.35C706.882,-310.19 548.832,-287.227 447.393,-272.489"/>
<polygon fill="black" stroke="black" points="447.851,-269.019 437.452,-271.045 446.844,-275.946 447.851,-269.019"/>
</g>
<!-- UPDATE_ROLLBACK_IN_PROGRESS&#45;&gt;UPDATE_ROLLBACK_COMPLETE_CLEANUP_IN_PROGRESS -->
<g id="sad_edge19" class="edge"><title>UPDATE_ROLLBACK_IN_PROGRESS&#45;&gt;UPDATE_ROLLBACK_COMPLETE_CLEANUP_IN_PROGRESS</title>
<path fill="none" stroke="black" d="M665.107,-480.8C665.703,-473.006 666.432,-463.47 667.137,-454.257"/>
<polygon fill="black" stroke="black" points="670.64,-454.34 667.913,-444.102 663.661,-453.806 670.64,-454.34"/>
</g>
<!-- UPDATE_ROLLBACK_IN_PROGRESS&#45;&gt;UPDATE_ROLLBACK_FAILED -->
<g id="sad_edge23" class="edge"><title>UPDATE_ROLLBACK_IN_PROGRESS&#45;&gt;UPDATE_ROLLBACK_FAILED</title>
<path fill="none" stroke="black" d="M761.601,-484.501C790.692,-476.579 820.881,-463.95 843.805,-443.823 866.929,-423.52 879.247,-389.618 885.388,-365.862"/>
<polygon fill="black" stroke="black" points="888.811,-366.598 887.724,-356.059 882.001,-364.976 888.811,-366.598"/>
</g>
</g>
</g>
</svg>
