<?xml version="1.0" encoding="UTF-8" standalone="no"?>
<!DOCTYPE svg PUBLIC "-//W3C//DTD SVG 1.1//EN"
 "http://www.w3.org/Graphics/SVG/1.1/DTD/svg11.dtd">
<!-- Generated by graphviz version 2.38.0 (20140413.2041)
 -->
<!-- Title: happy Pages: 1 -->
<svg width="456pt" height="656pt"
 viewBox="0.00 0.00 455.78 655.91" xmlns="http://www.w3.org/2000/svg" xmlns:xlink="http://www.w3.org/1999/xlink">
<g id="graph0" class="graph" transform="scale(1 1) rotate(0) translate(4 651.912)">
<title>happy</title>
<polygon fill="white" stroke="none" points="-4,4 -4,-651.912 451.781,-651.912 451.781,4 -4,4"/>
<!-- before_existence -->
<g id="node1" class="node"><title>before_existence</title>
<ellipse fill="none" stroke="black" cx="109.405" cy="-629.912" rx="39.1641" ry="18"/>
<text text-anchor="middle" x="109.405" y="-625.712" font-family="Times,serif" font-size="14.00">no stack</text>
</g>
<!-- CREATE_IN_PROGRESS -->
<g id="node4" class="node"><title>CREATE_IN_PROGRESS</title>
<ellipse fill="none" stroke="black" stroke-dasharray="1,5" cx="109.405" cy="-556.912" rx="106.335" ry="18"/>
<text text-anchor="middle" x="109.405" y="-552.712" font-family="Times,serif" font-size="14.00">CREATE_IN_PROGRESS</text>
</g>
<!-- before_existence&#45;&gt;CREATE_IN_PROGRESS -->
<g id="edge1" class="edge"><title>before_existence&#45;&gt;CREATE_IN_PROGRESS</title>
<path fill="none" stroke="black" d="M109.405,-611.725C109.405,-603.701 109.405,-593.959 109.405,-584.981"/>
<polygon fill="black" stroke="black" points="112.905,-584.94 109.405,-574.941 105.905,-584.941 112.905,-584.94"/>
</g>
<!-- after_existence -->
<g id="node2" class="node"><title>after_existence</title>
<ellipse fill="none" stroke="black" cx="106.405" cy="-18" rx="39.1641" ry="18"/>
<text text-anchor="middle" x="106.405" y="-13.8" font-family="Times,serif" font-size="14.00">no stack</text>
</g>
<!-- CREATE_COMPLETE -->
<g id="node3" class="node"><title>CREATE_COMPLETE</title>
<ellipse fill="none" stroke="black" cx="109.405" cy="-483.912" rx="94.7242" ry="18"/>
<text text-anchor="middle" x="109.405" y="-479.712" font-family="Times,serif" font-size="14.00">CREATE_COMPLETE</text>
</g>
<!-- DELETE_IN_PROGRESS -->
<g id="node6" class="node"><title>DELETE_IN_PROGRESS</title>
<ellipse fill="none" stroke="black" stroke-dasharray="1,5" cx="106.405" cy="-177" rx="106.31" ry="18"/>
<text text-anchor="middle" x="106.405" y="-172.8" font-family="Times,serif" font-size="14.00">DELETE_IN_PROGRESS</text>
</g>
<!-- CREATE_COMPLETE&#45;&gt;DELETE_IN_PROGRESS -->
<g id="edge8" class="edge"><title>CREATE_COMPLETE&#45;&gt;DELETE_IN_PROGRESS</title>
<path fill="none" stroke="black" d="M93.3657,-466.013C82.2374,-452.48 69.4047,-432.426 69.4047,-411.912 69.4047,-411.912 69.4047,-411.912 69.4047,-249 69.4047,-232.624 77.2409,-216.284 85.7008,-203.415"/>
<polygon fill="black" stroke="black" points="88.6612,-205.29 91.5686,-195.102 82.9424,-201.253 88.6612,-205.29"/>
</g>
<!-- UPDATE_IN_PROGRESS -->
<g id="node9" class="node"><title>UPDATE_IN_PROGRESS</title>
<ellipse fill="none" stroke="black" stroke-dasharray="1,5" cx="204.405" cy="-410.912" rx="106.82" ry="18"/>
<text text-anchor="middle" x="204.405" y="-406.712" font-family="Times,serif" font-size="14.00">UPDATE_IN_PROGRESS</text>
</g>
<!-- CREATE_COMPLETE&#45;&gt;UPDATE_IN_PROGRESS -->
<g id="edge3" class="edge"><title>CREATE_COMPLETE&#45;&gt;UPDATE_IN_PROGRESS</title>
<path fill="none" stroke="black" d="M131.918,-466.086C144.459,-456.713 160.249,-444.912 173.887,-434.72"/>
<polygon fill="black" stroke="black" points="176.138,-437.407 182.053,-428.617 171.947,-431.8 176.138,-437.407"/>
</g>
<!-- CREATE_IN_PROGRESS&#45;&gt;CREATE_COMPLETE -->
<g id="edge2" class="edge"><title>CREATE_IN_PROGRESS&#45;&gt;CREATE_COMPLETE</title>
<path fill="none" stroke="black" d="M109.405,-538.725C109.405,-530.701 109.405,-520.959 109.405,-511.981"/>
<polygon fill="black" stroke="black" points="112.905,-511.94 109.405,-501.941 105.905,-511.941 112.905,-511.94"/>
</g>
<!-- DELETE_COMPLETE -->
<g id="node5" class="node"><title>DELETE_COMPLETE</title>
<ellipse fill="none" stroke="black" cx="106.405" cy="-104" rx="94.6982" ry="18"/>
<text text-anchor="middle" x="106.405" y="-99.8" font-family="Times,serif" font-size="14.00">DELETE_COMPLETE</text>
</g>
<!-- DELETE_COMPLETE&#45;&gt;after_existence -->
<g id="edge10" class="edge"><title>DELETE_COMPLETE&#45;&gt;after_existence</title>
<path fill="none" stroke="black" d="M106.405,-85.5951C106.405,-74.2572 106.405,-59.2271 106.405,-46.3153"/>
<polygon fill="black" stroke="black" points="109.905,-46.0951 106.405,-36.0952 102.905,-46.0952 109.905,-46.0951"/>
<text text-anchor="middle" x="143.92" y="-56.8" font-family="Times,serif" font-size="14.00"> 90 days later</text>
</g>
<!-- DELETE_IN_PROGRESS&#45;&gt;DELETE_COMPLETE -->
<g id="edge9" class="edge"><title>DELETE_IN_PROGRESS&#45;&gt;DELETE_COMPLETE</title>
<path fill="none" stroke="black" d="M106.405,-158.813C106.405,-150.789 106.405,-141.047 106.405,-132.069"/>
<polygon fill="black" stroke="black" points="109.905,-132.029 106.405,-122.029 102.905,-132.029 109.905,-132.029"/>
</g>
<!-- UPDATE_COMPLETE -->
<g id="node7" class="node"><title>UPDATE_COMPLETE</title>
<ellipse fill="none" stroke="black" cx="192.405" cy="-250" rx="95.2087" ry="18"/>
<text text-anchor="middle" x="192.405" y="-245.8" font-family="Times,serif" font-size="14.00">UPDATE_COMPLETE</text>
</g>
<!-- UPDATE_COMPLETE&#45;&gt;DELETE_IN_PROGRESS -->
<g id="edge7" class="edge"><title>UPDATE_COMPLETE&#45;&gt;DELETE_IN_PROGRESS</title>
<path fill="none" stroke="black" d="M172.024,-232.174C160.778,-222.89 146.647,-211.223 134.381,-201.097"/>
<polygon fill="black" stroke="black" points="136.579,-198.373 126.639,-194.705 132.123,-203.771 136.579,-198.373"/>
</g>
<!-- UPDATE_COMPLETE&#45;&gt;UPDATE_IN_PROGRESS -->
<g id="edge6" class="edge"><title>UPDATE_COMPLETE&#45;&gt;UPDATE_IN_PROGRESS</title>
<path fill="none" stroke="black" d="M188.448,-268.216C184.252,-289.111 178.926,-325.345 184.405,-355.912 186.053,-365.106 189.162,-374.783 192.447,-383.365"/>
<polygon fill="black" stroke="black" points="189.293,-384.9 196.305,-392.841 195.776,-382.26 189.293,-384.9"/>
</g>
<!-- UPDATE_COMPLETE_CLEANUP_IN_PROGRESS -->
<g id="node8" class="node"><title>UPDATE_COMPLETE_CLEANUP_IN_PROGRESS</title>
<ellipse fill="none" stroke="black" stroke-dasharray="1,5" cx="320.405" cy="-330.456" rx="127.253" ry="25.4118"/>
<text text-anchor="middle" x="320.405" y="-333.256" font-family="Times,serif" font-size="14.00">UPDATE_COMPLETE</text>
<text text-anchor="middle" x="320.405" y="-319.256" font-family="Times,serif" font-size="14.00">CLEANUP_IN_PROGRESS</text>
</g>
<!-- UPDATE_COMPLETE_CLEANUP_IN_PROGRESS&#45;&gt;UPDATE_COMPLETE -->
<g id="edge5" class="edge"><title>UPDATE_COMPLETE_CLEANUP_IN_PROGRESS&#45;&gt;UPDATE_COMPLETE</title>
<path fill="none" stroke="black" d="M282.347,-306.129C265.027,-295.513 244.655,-283.026 227.684,-272.624"/>
<polygon fill="black" stroke="black" points="229.507,-269.636 219.152,-267.395 225.849,-275.605 229.507,-269.636"/>
</g>
<!-- UPDATE_IN_PROGRESS&#45;&gt;UPDATE_COMPLETE_CLEANUP_IN_PROGRESS -->
<g id="edge4" class="edge"><title>UPDATE_IN_PROGRESS&#45;&gt;UPDATE_COMPLETE_CLEANUP_IN_PROGRESS</title>
<path fill="none" stroke="black" d="M229.005,-393.273C242.937,-383.851 260.769,-371.79 276.978,-360.828"/>
<polygon fill="black" stroke="black" points="278.954,-363.716 285.276,-355.215 275.032,-357.918 278.954,-363.716"/>
</g>
</g>
</svg>
