<?xml version="1.0" encoding="UTF-8" standalone="no"?>
<!DOCTYPE svg PUBLIC "-//W3C//DTD SVG 1.1//EN"
 "http://www.w3.org/Graphics/SVG/1.1/DTD/svg11.dtd">
<!-- Generated by graphviz version 2.40.1 (20161225.0304)
 -->
<!-- Title: happy Pages: 1 -->
<svg width="439pt" height="729pt"
 viewBox="0.00 0.00 438.60 728.91" xmlns="http://www.w3.org/2000/svg" xmlns:xlink="http://www.w3.org/1999/xlink">
<g id="graph0" class="graph" transform="scale(1 1) rotate(0) translate(4 724.9117)">
<title>happy</title>
<polygon fill="#ffffff" stroke="transparent" points="-4,4 -4,-724.9117 434.5991,-724.9117 434.5991,4 -4,4"/>
<!-- before_existence -->
<g id="node1" class="node">
<title>before_existence</title>
<ellipse fill="none" stroke="#000000" cx="188.5991" cy="-702.9117" rx="39.1641" ry="18"/>
<text text-anchor="middle" x="188.5991" y="-698.7117" font-family="Times,serif" font-size="14.00" fill="#000000">no stack</text>
</g>
<!-- REVIEW_IN_PROGRESS -->
<g id="node3" class="node">
<title>REVIEW_IN_PROGRESS</title>
<ellipse fill="none" stroke="#000000" stroke-dasharray="1,5" cx="121.5991" cy="-629.9117" rx="107.2786" ry="18"/>
<text text-anchor="middle" x="121.5991" y="-625.7117" font-family="Times,serif" font-size="14.00" fill="#000000">REVIEW_IN_PROGRESS</text>
</g>
<!-- before_existence&#45;&gt;REVIEW_IN_PROGRESS -->
<g id="edge2" class="edge">
<title>before_existence&#45;&gt;REVIEW_IN_PROGRESS</title>
<path fill="none" stroke="#000000" d="M173.0595,-685.9805C164.6806,-676.8512 154.1733,-665.4031 144.8414,-655.2355"/>
<polygon fill="#000000" stroke="#000000" points="147.3295,-652.7702 137.9891,-647.7695 142.1724,-657.5035 147.3295,-652.7702"/>
</g>
<!-- CREATE_IN_PROGRESS -->
<g id="node5" class="node">
<title>CREATE_IN_PROGRESS</title>
<ellipse fill="none" stroke="#000000" stroke-dasharray="1,5" cx="256.5991" cy="-556.9117" rx="106.3355" ry="18"/>
<text text-anchor="middle" x="256.5991" y="-552.7117" font-family="Times,serif" font-size="14.00" fill="#000000">CREATE_IN_PROGRESS</text>
</g>
<!-- before_existence&#45;&gt;CREATE_IN_PROGRESS -->
<g id="edge1" class="edge">
<title>before_existence&#45;&gt;CREATE_IN_PROGRESS</title>
<path fill="none" stroke="#000000" d="M207.0875,-686.8456C217.5984,-676.7091 230.1173,-662.758 237.5991,-647.9117 247.542,-628.1816 252.2842,-603.5311 254.5445,-584.8643"/>
<polygon fill="#000000" stroke="#000000" points="258.0259,-585.2235 255.5857,-574.9135 251.0639,-584.495 258.0259,-585.2235"/>
</g>
<!-- after_existence -->
<g id="node2" class="node">
<title>after_existence</title>
<ellipse fill="none" stroke="#000000" cx="94.5991" cy="-18" rx="39.1641" ry="18"/>
<text text-anchor="middle" x="94.5991" y="-13.8" font-family="Times,serif" font-size="14.00" fill="#000000">no stack</text>
</g>
<!-- REVIEW_IN_PROGRESS&#45;&gt;CREATE_IN_PROGRESS -->
<g id="edge3" class="edge">
<title>REVIEW_IN_PROGRESS&#45;&gt;CREATE_IN_PROGRESS</title>
<path fill="none" stroke="#000000" d="M153.5922,-612.6117C172.1189,-602.5936 195.6345,-589.8777 215.5184,-579.1257"/>
<polygon fill="#000000" stroke="#000000" points="217.2362,-582.1758 224.3677,-574.3405 213.9066,-576.0183 217.2362,-582.1758"/>
</g>
<!-- DELETE_COMPLETE -->
<g id="node6" class="node">
<title>DELETE_COMPLETE</title>
<ellipse fill="none" stroke="#000000" cx="94.5991" cy="-104" rx="94.6982" ry="18"/>
<text text-anchor="middle" x="94.5991" y="-99.8" font-family="Times,serif" font-size="14.00" fill="#000000">DELETE_COMPLETE</text>
</g>
<!-- REVIEW_IN_PROGRESS&#45;&gt;DELETE_COMPLETE -->
<g id="edge5" class="edge">
<title>REVIEW_IN_PROGRESS&#45;&gt;DELETE_COMPLETE</title>
<path fill="none" stroke="#000000" d="M105.7363,-612.1011C94.9389,-598.1141 82.5991,-577.6029 82.5991,-556.9117 82.5991,-556.9117 82.5991,-556.9117 82.5991,-177 82.5991,-162.1023 85.0626,-145.7182 87.7572,-132.2531"/>
<polygon fill="#000000" stroke="#000000" points="91.2461,-132.6765 89.9252,-122.1644 84.4023,-131.2058 91.2461,-132.6765"/>
</g>
<!-- CREATE_COMPLETE -->
<g id="node4" class="node">
<title>CREATE_COMPLETE</title>
<ellipse fill="none" stroke="#000000" cx="276.5991" cy="-483.9117" rx="94.7242" ry="18"/>
<text text-anchor="middle" x="276.5991" y="-479.7117" font-family="Times,serif" font-size="14.00" fill="#000000">CREATE_COMPLETE</text>
</g>
<!-- DELETE_IN_PROGRESS -->
<g id="node7" class="node">
<title>DELETE_IN_PROGRESS</title>
<ellipse fill="none" stroke="#000000" stroke-dasharray="1,5" cx="272.5991" cy="-177" rx="106.3096" ry="18"/>
<text text-anchor="middle" x="272.5991" y="-172.8" font-family="Times,serif" font-size="14.00" fill="#000000">DELETE_IN_PROGRESS</text>
</g>
<!-- CREATE_COMPLETE&#45;&gt;DELETE_IN_PROGRESS -->
<g id="edge11" class="edge">
<title>CREATE_COMPLETE&#45;&gt;DELETE_IN_PROGRESS</title>
<path fill="none" stroke="#000000" d="M330.8937,-469.0961C375.2312,-455.3422 430.5991,-433.6204 430.5991,-410.9117 430.5991,-410.9117 430.5991,-410.9117 430.5991,-250 430.5991,-228.7904 383.0869,-208.8904 340.171,-195.2416"/>
<polygon fill="#000000" stroke="#000000" points="341.1232,-191.8726 330.5353,-192.2543 339.0503,-198.5586 341.1232,-191.8726"/>
</g>
<!-- UPDATE_IN_PROGRESS -->
<g id="node10" class="node">
<title>UPDATE_IN_PROGRESS</title>
<ellipse fill="none" stroke="#000000" stroke-dasharray="1,5" cx="276.5991" cy="-410.9117" rx="106.82" ry="18"/>
<text text-anchor="middle" x="276.5991" y="-406.7117" font-family="Times,serif" font-size="14.00" fill="#000000">UPDATE_IN_PROGRESS</text>
</g>
<!-- CREATE_COMPLETE&#45;&gt;UPDATE_IN_PROGRESS -->
<g id="edge6" class="edge">
<title>CREATE_COMPLETE&#45;&gt;UPDATE_IN_PROGRESS</title>
<path fill="none" stroke="#000000" d="M276.5991,-465.8667C276.5991,-457.7945 276.5991,-448.0881 276.5991,-439.0934"/>
<polygon fill="#000000" stroke="#000000" points="280.0992,-439.002 276.5991,-429.002 273.0992,-439.0021 280.0992,-439.002"/>
</g>
<!-- CREATE_IN_PROGRESS&#45;&gt;CREATE_COMPLETE -->
<g id="edge4" class="edge">
<title>CREATE_IN_PROGRESS&#45;&gt;CREATE_COMPLETE</title>
<path fill="none" stroke="#000000" d="M261.5429,-538.8667C263.7785,-530.7068 266.4716,-520.8769 268.9583,-511.8004"/>
<polygon fill="#000000" stroke="#000000" points="272.376,-512.5715 271.6428,-502.002 265.6248,-510.7218 272.376,-512.5715"/>
</g>
<!-- DELETE_COMPLETE&#45;&gt;after_existence -->
<g id="edge13" class="edge">
<title>DELETE_COMPLETE&#45;&gt;after_existence</title>
<path fill="none" stroke="#000000" d="M94.5991,-85.7616C94.5991,-74.3597 94.5991,-59.4342 94.5991,-46.494"/>
<polygon fill="#000000" stroke="#000000" points="98.0992,-46.2121 94.5991,-36.2121 91.0992,-46.2121 98.0992,-46.2121"/>
<text text-anchor="middle" x="132.1147" y="-56.8" font-family="Times,serif" font-size="14.00" fill="#000000"> 90 days later</text>
</g>
<!-- DELETE_IN_PROGRESS&#45;&gt;DELETE_COMPLETE -->
<g id="edge12" class="edge">
<title>DELETE_IN_PROGRESS&#45;&gt;DELETE_COMPLETE</title>
<path fill="none" stroke="#000000" d="M231.7623,-160.2523C205.6869,-149.5585 171.7184,-135.6276 144.1094,-124.3048"/>
<polygon fill="#000000" stroke="#000000" points="145.2126,-120.9744 134.6324,-120.4182 142.5565,-127.4509 145.2126,-120.9744"/>
</g>
<!-- UPDATE_COMPLETE -->
<g id="node8" class="node">
<title>UPDATE_COMPLETE</title>
<ellipse fill="none" stroke="#000000" cx="272.5991" cy="-250" rx="95.2087" ry="18"/>
<text text-anchor="middle" x="272.5991" y="-245.8" font-family="Times,serif" font-size="14.00" fill="#000000">UPDATE_COMPLETE</text>
</g>
<!-- UPDATE_COMPLETE&#45;&gt;DELETE_IN_PROGRESS -->
<g id="edge10" class="edge">
<title>UPDATE_COMPLETE&#45;&gt;DELETE_IN_PROGRESS</title>
<path fill="none" stroke="#000000" d="M272.5991,-231.9551C272.5991,-223.8828 272.5991,-214.1764 272.5991,-205.1817"/>
<polygon fill="#000000" stroke="#000000" points="276.0992,-205.0903 272.5991,-195.0904 269.0992,-205.0904 276.0992,-205.0903"/>
</g>
<!-- UPDATE_COMPLETE&#45;&gt;UPDATE_IN_PROGRESS -->
<g id="edge9" class="edge">
<title>UPDATE_COMPLETE&#45;&gt;UPDATE_IN_PROGRESS</title>
<path fill="none" stroke="#000000" d="M323.7954,-265.3046C342.8886,-273.7761 362.5853,-286.4616 373.5991,-305 385.1563,-324.4533 384.989,-336.36 373.5991,-355.9117 364.8829,-370.8737 350.416,-382.0946 335.2809,-390.3622"/>
<polygon fill="#000000" stroke="#000000" points="333.6709,-387.2543 326.3309,-394.8947 336.8334,-393.4992 333.6709,-387.2543"/>
</g>
<!-- UPDATE_COMPLETE_CLEANUP_IN_PROGRESS -->
<g id="node9" class="node">
<title>UPDATE_COMPLETE_CLEANUP_IN_PROGRESS</title>
<ellipse fill="none" stroke="#000000" stroke-dasharray="1,5" cx="237.5991" cy="-330.4558" rx="127.2533" ry="25.4118"/>
<text text-anchor="middle" x="237.5991" y="-333.2558" font-family="Times,serif" font-size="14.00" fill="#000000">UPDATE_COMPLETE</text>
<text text-anchor="middle" x="237.5991" y="-319.2558" font-family="Times,serif" font-size="14.00" fill="#000000">CLEANUP_IN_PROGRESS</text>
</g>
<!-- UPDATE_COMPLETE_CLEANUP_IN_PROGRESS&#45;&gt;UPDATE_COMPLETE -->
<g id="edge8" class="edge">
<title>UPDATE_COMPLETE_CLEANUP_IN_PROGRESS&#45;&gt;UPDATE_COMPLETE</title>
<path fill="none" stroke="#000000" d="M248.6733,-304.9991C252.4972,-296.2089 256.7965,-286.326 260.6848,-277.3878"/>
<polygon fill="#000000" stroke="#000000" points="263.921,-278.7223 264.7007,-268.1562 257.5021,-275.9299 263.921,-278.7223"/>
</g>
<!-- UPDATE_IN_PROGRESS&#45;&gt;UPDATE_COMPLETE_CLEANUP_IN_PROGRESS -->
<g id="edge7" class="edge">
<title>UPDATE_IN_PROGRESS&#45;&gt;UPDATE_COMPLETE_CLEANUP_IN_PROGRESS</title>
<path fill="none" stroke="#000000" d="M267.7494,-392.655C263.8052,-384.5183 259.0225,-374.6517 254.4395,-365.1971"/>
<polygon fill="#000000" stroke="#000000" points="257.473,-363.431 249.9615,-355.9592 251.174,-366.4844 257.473,-363.431"/>
</g>
</g>
</svg>
