<?xml version="1.0" encoding="UTF-8" standalone="no"?>
<!DOCTYPE svg PUBLIC "-//W3C//DTD SVG 1.1//EN"
 "http://www.w3.org/Graphics/SVG/1.1/DTD/svg11.dtd">
<!-- Generated by graphviz version 2.38.0 (20140413.2041)
 -->
<!-- Title: toplevel Pages: 1 -->
<svg width="179pt" height="349pt"
 viewBox="0.00 0.00 179.30 349.00" xmlns="http://www.w3.org/2000/svg" xmlns:xlink="http://www.w3.org/1999/xlink">
<g id="graph0" class="graph" transform="scale(1 1) rotate(0) translate(4 345)">
<title>toplevel</title>
<polygon fill="white" stroke="none" points="-4,4 -4,-345 175.297,-345 175.297,4 -4,4"/>
<!-- before_existence -->
<g id="node1" class="node"><title>before_existence</title>
<ellipse fill="none" stroke="black" cx="49.9024" cy="-323" rx="39.1641" ry="18"/>
<text text-anchor="middle" x="49.9024" y="-318.8" font-family="Times,serif" font-size="14.00">no stack</text>
</g>
<!-- CREATED -->
<g id="node3" class="node"><title>CREATED</title>
<ellipse fill="none" stroke="black" cx="49.9024" cy="-250" rx="49.805" ry="18"/>
<text text-anchor="middle" x="49.9024" y="-245.8" font-family="Times,serif" font-size="14.00">CREATED</text>
</g>
<!-- before_existence&#45;&gt;CREATED -->
<g id="edge1" class="edge"><title>before_existence&#45;&gt;CREATED</title>
<path fill="none" stroke="black" d="M49.9024,-304.813C49.9024,-296.789 49.9024,-287.047 49.9024,-278.069"/>
<polygon fill="black" stroke="black" points="53.4025,-278.029 49.9024,-268.029 46.4025,-278.029 53.4025,-278.029"/>
</g>
<!-- after_existence -->
<g id="node2" class="node"><title>after_existence</title>
<ellipse fill="none" stroke="black" cx="49.9024" cy="-18" rx="39.1641" ry="18"/>
<text text-anchor="middle" x="49.9024" y="-13.8" font-family="Times,serif" font-size="14.00">no stack</text>
</g>
<!-- DELETED -->
<g id="node4" class="node"><title>DELETED</title>
<ellipse fill="none" stroke="black" cx="49.9024" cy="-104" rx="49.7792" ry="18"/>
<text text-anchor="middle" x="49.9024" y="-99.8" font-family="Times,serif" font-size="14.00">DELETED</text>
</g>
<!-- CREATED&#45;&gt;DELETED -->
<g id="edge5" class="edge"><title>CREATED&#45;&gt;DELETED</title>
<path fill="none" stroke="black" d="M47.5276,-232.016C46.1647,-221.401 44.591,-207.432 43.9024,-195 43.0176,-179.024 43.0176,-174.976 43.9024,-159 44.3919,-150.162 45.3288,-140.547 46.3193,-131.912"/>
<polygon fill="black" stroke="black" points="49.7937,-132.334 47.5276,-121.984 42.845,-131.488 49.7937,-132.334"/>
</g>
<!-- UPDATED -->
<g id="node5" class="node"><title>UPDATED</title>
<ellipse fill="none" stroke="black" cx="102.902" cy="-177" rx="50.2896" ry="18"/>
<text text-anchor="middle" x="102.902" y="-172.8" font-family="Times,serif" font-size="14.00">UPDATED</text>
</g>
<!-- CREATED&#45;&gt;UPDATED -->
<g id="edge2" class="edge"><title>CREATED&#45;&gt;UPDATED</title>
<path fill="none" stroke="black" d="M62.1949,-232.533C68.7227,-223.788 76.8834,-212.856 84.1808,-203.08"/>
<polygon fill="black" stroke="black" points="87.1313,-204.978 90.3086,-194.871 81.5219,-200.791 87.1313,-204.978"/>
</g>
<!-- DELETED&#45;&gt;after_existence -->
<g id="edge6" class="edge"><title>DELETED&#45;&gt;after_existence</title>
<path fill="none" stroke="black" d="M49.9024,-85.5951C49.9024,-74.2572 49.9024,-59.2271 49.9024,-46.3153"/>
<polygon fill="black" stroke="black" points="53.4025,-46.0951 49.9024,-36.0952 46.4025,-46.0952 53.4025,-46.0951"/>
<text text-anchor="middle" x="87.418" y="-56.8" font-family="Times,serif" font-size="14.00"> 90 days later</text>
</g>
<!-- UPDATED&#45;&gt;DELETED -->
<g id="edge4" class="edge"><title>UPDATED&#45;&gt;DELETED</title>
<path fill="none" stroke="black" d="M90.6099,-159.533C84.0822,-150.788 75.9214,-139.856 68.6241,-130.08"/>
<polygon fill="black" stroke="black" points="71.283,-127.791 62.4963,-121.871 65.6735,-131.978 71.283,-127.791"/>
</g>
<!-- UPDATED&#45;&gt;UPDATED -->
<g id="edge3" class="edge"><title>UPDATED&#45;&gt;UPDATED</title>
<path fill="none" stroke="black" d="M149.893,-183.68C162.096,-183.27 171.297,-181.043 171.297,-177 171.297,-174.22 166.948,-172.299 160.265,-171.237"/>
<polygon fill="black" stroke="black" points="160.163,-167.714 149.893,-170.32 159.546,-174.687 160.163,-167.714"/>
</g>
</g>
</svg>
